if (_typeface_js && _typeface_js.loadFace) _typeface_js.loadFace({"glyphs":{"S":{"x_min":296.78125,"x_max":1134.53125,"ha":1389,"o":"m 1134 729 l 1113 666 l 1092 666 q 998 701 1067 666 q 906 754 944 729 q 719 666 769 666 q 698 707 712 686 l 383 707 l 380 670 l 317 670 l 317 1031 l 697 1031 l 697 982 l 570 982 l 570 942 l 692 942 l 692 804 l 570 804 l 570 754 l 701 754 l 703 741 q 852 803 797 759 q 803 894 828 848 q 738 960 770 953 l 738 1019 l 1028 1019 l 1041 1035 q 1106 982 1072 1016 q 1037 890 1084 957 q 963 800 997 829 q 1045 759 988 777 q 1134 729 1119 736 m 1102 237 q 1081 162 1097 211 l 1053 162 q 792 251 966 162 q 828 307 805 269 l 429 307 l 429 654 l 971 654 l 971 307 l 865 307 q 1102 237 915 273 m 1046 -74 q 1039 -76 1045 -74 q 1028 -79 1034 -79 q 999 -62 1016 -79 l 999 40 q 977 55 991 44 q 961 41 974 51 q 925 -9 928 27 q 927 -75 927 -41 l 909 -75 l 909 62 q 930 47 917 59 q 947 65 938 65 q 963 63 952 65 q 980 61 974 61 q 999 62 989 61 q 1001 90 1001 76 q 1019 107 1002 105 l 1019 67 q 1042 63 1025 63 l 1042 44 l 1019 44 l 1019 -44 q 1046 -74 1031 -52 m 876 -75 l 853 -75 q 847 -59 852 -66 q 799 -79 820 -79 q 753 -40 753 -79 q 801 2 753 -4 q 848 22 848 8 q 815 47 848 47 q 780 20 785 47 q 768 22 776 20 q 758 25 760 23 q 816 64 767 64 q 872 4 872 64 q 872 -18 872 -2 q 871 -40 871 -31 q 876 -75 871 -61 m 621 234 q 475 188 548 212 q 325 158 385 161 q 296 237 316 184 q 564 305 453 256 q 621 234 585 283 m 726 -75 l 707 -75 q 707 -20 707 -77 q 680 47 707 47 q 642 -23 642 47 q 644 -50 642 -33 q 645 -75 645 -66 l 623 -75 l 623 29 q 598 47 623 47 q 562 -1 568 47 q 562 -72 562 -4 l 562 -75 l 544 -75 l 544 63 l 562 63 l 562 57 q 564 47 562 51 q 595 64 582 64 q 641 42 630 64 q 652 53 641 42 q 685 64 663 64 q 726 37 726 64 l 726 -75 m 508 -22 q 485 -63 508 -47 q 436 -79 462 -79 q 382 -60 407 -79 q 357 -12 358 -41 l 380 -12 q 397 -43 379 -31 q 436 -55 415 -55 q 483 -23 483 -55 q 424 14 483 0 q 365 63 365 29 q 432 115 365 115 q 502 59 494 115 l 480 59 q 432 95 466 95 q 389 64 389 95 q 448 29 389 39 q 508 -22 508 19 m 999 955 l 841 959 q 911 844 854 897 q 999 955 968 900 m 502 940 l 502 983 l 382 983 l 382 940 l 502 940 m 637 850 l 637 891 l 382 891 l 382 850 l 637 850 m 908 558 l 908 604 l 493 604 l 493 558 l 908 558 m 502 754 l 502 804 l 382 804 l 381 754 l 502 754 m 908 457 l 908 507 l 492 507 l 492 457 l 908 457 m 907 355 l 907 405 l 494 405 l 494 355 l 907 355 m 848 -34 l 848 -8 q 811 -13 830 -11 q 777 -27 787 -18 l 777 -47 q 807 -59 793 -59 q 848 -34 848 -59 "},"K":{"x_min":254.578125,"x_max":1146.3125,"ha":1389,"o":"m 1146 293 l 1114 190 q 869 320 987 224 q 700 536 743 422 q 537 305 677 415 q 279 183 407 201 l 254 276 q 501 394 382 294 q 631 625 631 504 l 314 625 l 314 697 l 639 697 l 639 892 l 277 892 l 277 965 l 1118 965 l 1118 893 l 731 893 l 731 700 l 1075 700 l 1075 628 l 746 623 q 901 406 774 506 q 1146 293 1019 315 m 1139 -75 l 1115 -75 q 1115 -64 1115 -72 q 1115 -40 1115 -56 q 1116 -15 1116 -23 q 1084 47 1116 47 q 1044 -31 1044 47 q 1046 -52 1044 -37 q 1047 -75 1047 -66 l 1028 -75 l 1028 63 l 1047 63 l 1047 57 q 1050 43 1046 50 q 1084 64 1065 64 q 1139 26 1139 64 l 1139 -75 m 998 -11 l 894 -15 q 893 -22 893 -17 q 938 -59 893 -59 q 972 -31 963 -59 l 995 -31 q 975 -63 995 -48 q 938 -79 955 -79 q 888 -58 908 -79 q 869 -8 869 -37 q 934 64 869 64 q 998 -11 995 64 m 852 63 l 804 -75 l 777 -75 l 730 63 l 752 63 q 791 -43 764 26 q 834 63 805 -8 l 852 63 m 714 -75 l 690 -75 q 685 -59 690 -66 q 636 -79 658 -79 q 591 -40 591 -79 q 639 2 591 -4 q 686 22 686 8 q 653 47 686 47 q 618 20 623 47 q 606 22 614 20 q 596 25 598 23 q 654 64 605 64 q 710 5 710 64 q 710 -16 710 -1 q 709 -40 709 -31 q 714 -75 709 -61 m 571 -11 l 466 -15 q 466 -22 466 -17 q 510 -59 466 -59 q 545 -31 535 -59 l 567 -31 q 547 -63 568 -48 q 510 -79 527 -79 q 461 -58 481 -79 q 441 -8 441 -37 q 506 64 441 64 q 571 -11 567 64 m 410 -75 l 385 -75 q 389 -29 389 -52 q 386 16 389 -7 l 291 16 l 291 -75 l 267 -75 l 267 113 l 289 113 l 289 34 l 382 34 q 390 68 390 44 q 389 102 389 84 l 389 113 l 410 113 l 410 -75 m 975 8 q 936 46 962 46 q 908 34 916 46 q 893 8 900 21 l 975 8 m 686 -34 l 686 -8 q 648 -13 666 -10 q 615 -27 625 -17 l 615 -46 q 644 -59 630 -59 q 686 -34 686 -59 m 547 8 q 508 47 533 47 q 481 34 489 47 q 464 8 472 22 l 547 8 "},"7":{"x_min":272,"x_max":1113.734375,"ha":1389,"o":"m 1113 812 q 1113 726 1109 790 l 660 659 l 660 330 l 679 310 l 945 310 q 990 362 967 310 q 1008 436 1009 409 l 1099 399 q 1060 291 1085 340 q 983 222 1023 222 l 642 222 q 596 245 620 222 q 572 291 572 269 l 572 647 l 570 647 q 422 633 517 651 q 272 615 317 615 q 272 701 274 651 l 572 741 l 572 1015 l 673 1009 q 660 980 660 980 l 660 757 q 893 793 776 775 q 1113 812 1066 819 m 1057 -75 l 1033 -75 q 1033 -64 1033 -72 q 1033 -40 1033 -56 q 1033 -15 1033 -23 q 1001 47 1033 47 q 962 -32 962 47 q 962 -52 962 -37 q 962 -75 962 -66 l 945 -75 l 945 64 l 962 64 l 962 58 q 964 43 960 50 q 1000 64 980 64 q 1057 26 1057 64 l 1057 -75 m 913 -11 l 812 -15 q 811 -22 811 -18 q 856 -60 811 -60 q 889 -31 881 -60 l 913 -31 q 892 -63 913 -48 q 856 -79 872 -79 q 806 -58 825 -79 q 787 -8 787 -37 q 850 64 787 64 q 913 -11 910 64 m 774 64 l 726 -75 l 699 -75 l 652 64 l 674 64 q 713 -43 685 27 q 755 64 726 -7 l 774 64 m 640 -11 l 535 -15 q 534 -22 534 -18 q 579 -60 534 -60 q 612 -31 604 -60 l 636 -31 q 615 -63 636 -48 q 579 -79 595 -79 q 529 -58 548 -79 q 510 -8 510 -37 q 575 64 510 64 q 640 -11 635 64 m 484 -22 q 462 -63 484 -47 q 413 -79 440 -79 q 360 -59 384 -79 q 334 -11 335 -40 l 358 -11 q 374 -42 356 -30 q 413 -55 392 -55 q 460 -23 460 -55 q 401 14 460 1 q 342 63 342 27 q 409 115 342 115 q 480 59 472 115 l 458 59 q 409 96 444 96 q 366 65 366 96 q 396 36 366 41 q 453 25 426 30 q 484 -22 484 14 m 892 8 q 854 47 880 47 q 826 34 834 47 q 811 8 817 21 l 892 8 m 615 8 q 576 47 601 47 q 549 34 557 47 q 534 8 540 21 l 615 8 "},"d":{"x_min":282.46875,"x_max":1122.921875,"ha":1389,"o":"m 1066 819 q 995 697 1044 784 q 922 575 954 616 q 844 625 873 609 q 973 865 907 708 l 1066 819 m 1122 280 q 1082 182 1106 246 q 854 322 975 214 q 700 536 727 435 q 552 313 665 423 q 326 175 439 203 l 282 264 q 588 490 511 343 q 645 828 645 597 q 645 925 645 858 q 644 1028 644 990 l 696 1031 l 742 1026 l 734 999 l 734 687 q 868 432 734 558 q 1122 280 986 321 m 505 819 q 479 688 497 790 q 443 559 463 607 q 345 591 409 569 q 397 848 402 694 q 505 819 461 836 m 916 -11 l 812 -15 q 810 -22 810 -17 q 856 -59 810 -59 q 889 -31 881 -59 l 913 -31 q 893 -63 913 -48 q 856 -79 873 -79 q 806 -58 825 -79 q 787 -8 787 -37 q 852 64 787 64 q 916 -11 913 64 m 670 87 l 651 87 l 652 114 l 669 114 l 670 87 m 782 58 q 777 48 781 56 q 768 39 774 39 q 764 41 764 39 q 759 42 763 42 q 730 -5 734 42 q 730 -75 730 -4 l 712 -75 l 712 62 q 732 47 721 59 q 748 64 752 64 q 766 61 755 64 q 782 58 777 58 m 670 -75 l 652 -75 l 652 63 l 670 63 l 670 -75 m 618 90 l 520 90 l 520 33 l 607 33 l 607 12 l 521 12 l 521 -75 l 496 -75 l 496 114 l 618 114 l 618 90 m 891 8 q 852 47 879 47 q 825 34 833 47 q 809 8 816 22 l 891 8 "},"Y":{"x_min":250,"x_max":1145.90625,"ha":1389,"o":"m 1145 663 l 1055 663 l 999 663 l 999 170 l 925 170 l 925 663 l 865 663 l 763 663 l 763 575 q 739 354 763 436 q 616 170 705 244 q 551 236 614 173 q 642 342 601 268 q 684 475 684 416 l 684 998 q 769 972 769 972 q 915 994 831 972 q 1058 1035 986 1015 q 1115 949 1086 997 q 1061 949 1075 949 q 910 926 1000 949 q 763 888 768 889 l 763 735 l 1145 735 l 1145 663 m 650 554 q 621 468 640 526 q 492 540 568 498 l 492 170 l 411 170 l 411 555 q 282 444 370 515 l 250 522 q 516 816 470 696 l 281 816 l 281 888 l 365 888 l 418 888 l 418 1054 l 506 1054 l 492 1033 l 492 888 l 580 888 l 593 900 l 638 855 l 492 638 q 568 591 519 613 q 650 554 609 572 m 963 64 q 930 -38 947 13 q 879 -131 909 -98 l 854 -126 l 854 -108 q 893 -74 893 -108 q 845 64 893 -66 l 868 64 q 907 -43 879 27 l 944 64 l 963 64 m 825 -75 l 801 -75 q 795 -60 801 -66 q 746 -79 769 -79 q 702 -40 702 -79 q 749 2 702 -4 q 797 22 797 8 q 763 47 797 47 q 729 20 734 47 q 706 25 722 22 q 765 64 713 64 q 815 38 804 64 q 820 -17 822 23 q 825 -75 818 -58 m 694 59 q 689 50 693 57 q 680 43 686 43 q 675 43 676 43 q 670 43 675 43 q 641 -6 645 43 q 641 -75 641 -2 l 623 -75 l 623 64 q 645 47 632 60 q 659 64 662 64 q 676 61 665 64 q 694 59 688 59 m 587 56 q 548 5 587 15 q 475 0 536 1 q 472 -36 472 -12 q 475 -75 472 -58 l 448 -75 l 448 115 l 533 115 q 572 97 556 115 q 587 56 587 80 m 797 -34 l 797 -8 q 759 -13 777 -11 q 726 -27 735 -18 l 726 -47 q 755 -59 741 -59 q 782 -52 767 -59 q 797 -34 797 -44 m 563 59 q 541 90 563 90 l 472 90 l 472 23 l 537 23 q 563 59 563 23 "},"E":{"x_min":262,"x_max":1134.296875,"ha":1389,"o":"m 1134 556 l 750 556 l 750 238 q 729 206 750 222 q 695 190 709 190 l 575 190 q 555 276 560 238 q 660 276 549 276 l 660 556 l 262 556 l 262 645 l 660 645 l 660 816 q 724 806 719 806 q 801 851 746 806 q 873 914 837 883 l 364 914 l 364 988 l 925 988 q 934 994 928 988 q 945 1000 941 1000 q 1019 926 957 1000 l 750 726 l 750 645 l 1134 645 l 1134 556 m 979 -74 l 960 -74 q 958 -60 960 -62 q 920 -79 944 -79 q 874 -49 892 -79 q 861 -5 861 -27 q 920 64 861 64 q 957 47 948 64 q 956 114 963 74 l 979 114 l 979 -74 m 773 88 l 754 88 l 754 114 l 773 114 l 773 88 m 832 -74 l 814 -74 l 814 114 l 832 114 l 832 -74 m 773 -74 l 754 -74 l 754 64 l 773 64 l 773 -74 m 717 -74 l 693 -74 q 695 -5 695 -39 q 663 47 693 47 q 624 -30 624 47 q 624 -74 624 -85 l 606 -74 l 606 114 l 630 114 q 628 47 623 80 q 670 64 645 64 q 717 22 717 64 l 717 -74 m 574 -22 q 544 -62 574 -45 q 494 -79 514 -79 q 430 -48 453 -79 q 407 18 407 -18 q 430 85 407 57 q 496 114 453 114 q 570 65 550 114 q 562 59 568 62 q 553 55 555 56 q 529 82 541 69 q 495 95 517 95 q 431 19 431 95 q 495 -55 431 -55 q 552 -8 545 -55 q 574 -22 574 -19 m 959 -5 q 921 47 959 47 q 884 -5 884 47 q 924 -59 884 -59 q 959 -5 959 -59 "},"y":{"x_min":243.390625,"x_max":1155.453125,"ha":1388,"o":"m 1091 219 q 1076 189 1091 203 q 1044 175 1061 175 l 961 175 q 944 248 953 197 q 983 248 940 248 q 1024 261 1011 248 l 1024 485 q 852 485 1017 485 q 814 308 827 346 q 707 166 783 221 q 653 216 693 176 q 738 315 701 254 q 777 439 777 382 l 777 1007 l 1091 1007 l 1091 219 m 732 329 l 544 329 l 544 171 l 465 171 l 465 328 l 258 328 l 258 402 l 465 402 l 465 479 l 314 479 l 314 822 l 465 822 l 465 888 l 277 888 l 277 963 l 462 963 l 462 1054 l 553 1054 l 543 1036 l 543 966 l 718 966 l 718 888 l 543 888 l 543 822 l 690 822 l 690 479 l 543 479 l 543 402 l 732 402 l 732 329 m 1155 -94 q 1133 -119 1155 -108 q 1095 -131 1112 -131 q 1040 -87 1056 -131 q 1071 -106 1040 -87 q 1109 -111 1082 -111 q 1136 -80 1119 -111 l 1133 -59 q 1094 -75 1110 -75 q 1052 -52 1067 -75 q 1037 -4 1037 -30 q 1103 64 1037 64 q 1134 47 1123 64 q 1136 62 1136 50 l 1155 62 l 1155 -94 m 860 87 l 841 87 l 841 113 l 860 113 l 860 87 m 1010 -75 l 988 -75 q 986 -65 986 -72 q 988 -40 986 -56 q 989 -15 989 -23 q 957 47 989 47 q 917 -31 917 47 q 919 -54 917 -37 q 919 -75 920 -66 l 900 -75 l 900 62 l 919 62 l 919 57 q 921 43 919 50 q 956 64 937 64 q 1010 26 1011 64 l 1010 -75 m 859 -75 l 842 -75 l 842 62 l 859 62 l 859 -75 m 804 -75 l 781 -75 q 781 -64 781 -72 q 781 -40 781 -56 q 783 -15 783 -23 q 751 47 783 47 q 711 -31 711 47 q 712 -52 711 -37 q 714 -75 714 -66 l 694 -75 l 694 62 l 713 62 l 713 57 q 716 43 711 50 q 750 64 731 64 q 804 26 804 64 l 804 -75 m 677 58 q 673 48 677 57 q 663 40 670 40 q 658 41 659 40 q 653 43 657 43 q 626 -5 630 43 q 626 -75 626 -4 l 607 -75 l 607 62 q 628 47 616 59 q 643 64 648 64 q 661 61 649 64 q 677 58 673 58 m 575 -5 q 513 -79 575 -79 q 466 -58 484 -79 q 448 -8 448 -37 q 513 64 448 64 q 575 -5 575 63 m 422 -75 l 397 -75 l 397 79 q 344 -75 364 -9 l 322 -75 l 267 79 l 267 -75 l 243 -75 l 243 114 l 276 114 l 335 -42 l 393 114 l 422 114 l 422 -75 m 1024 786 l 1024 936 l 845 936 l 846 786 l 1024 786 m 1024 556 l 1024 710 l 845 710 l 845 555 l 1024 556 m 622 683 l 622 760 l 382 760 l 382 683 l 622 683 m 1134 -5 q 1097 47 1134 47 q 1059 -4 1059 47 q 1097 -55 1059 -55 q 1134 -5 1134 -55 m 622 540 l 622 622 l 382 622 l 382 540 l 622 540 m 555 -5 q 543 29 555 12 q 513 47 531 47 q 472 -5 472 47 q 513 -59 472 -59 q 555 -5 555 -59 "},"g":{"x_min":267.109375,"x_max":1130.640625,"ha":1389,"o":"m 1130 450 q 1048 404 1101 434 q 987 575 1005 533 q 893 732 950 659 q 958 786 897 736 q 1130 450 1068 658 m 809 884 q 751 809 809 877 q 551 969 670 895 q 604 1039 568 993 q 719 968 645 1019 q 809 884 809 905 m 982 423 q 952 291 972 351 q 878 198 922 198 l 566 198 q 524 215 543 198 q 505 256 505 232 l 505 857 l 607 852 l 595 826 l 595 299 l 610 286 l 843 286 q 875 359 857 286 q 893 451 884 405 q 982 423 951 434 m 1019 -75 q 1012 -77 1018 -75 q 1001 -79 1007 -79 q 972 -62 989 -79 l 972 40 q 950 55 964 44 q 934 41 947 51 q 898 -9 901 27 q 900 -75 900 -41 l 882 -75 l 882 62 q 902 47 890 59 q 919 65 911 65 q 936 63 925 65 q 953 61 947 61 q 972 63 962 61 q 974 91 973 76 q 992 107 975 106 l 992 67 q 1015 63 998 63 l 1015 44 l 992 44 l 992 -44 q 1019 -75 1004 -52 m 432 733 q 353 345 410 602 q 267 373 344 347 q 331 761 335 582 q 432 733 364 752 m 848 -75 l 826 -75 q 820 -59 825 -66 q 772 -79 793 -79 q 726 -40 726 -79 q 774 2 726 -4 q 821 22 821 8 q 788 47 821 47 q 753 20 758 47 q 741 22 749 20 q 731 24 733 23 q 789 64 738 64 q 845 4 845 64 q 845 -18 845 -2 q 844 -40 844 -31 q 848 -75 844 -61 m 706 -11 l 601 -15 q 601 -22 601 -17 q 645 -59 601 -59 q 680 -31 670 -59 l 702 -31 q 682 -63 703 -48 q 645 -79 662 -79 q 596 -58 616 -79 q 576 -8 576 -37 q 641 64 576 64 q 706 -11 702 64 m 542 -75 l 517 -75 q 520 -29 520 -52 q 517 16 520 -6 l 422 16 l 422 -75 l 398 -75 l 398 113 l 420 113 l 420 34 l 512 34 q 521 68 521 44 q 519 102 521 84 l 521 113 l 542 113 l 542 -75 m 820 -34 l 820 -8 q 783 -13 802 -10 q 750 -27 759 -17 l 750 -46 q 779 -59 765 -59 q 806 -51 791 -59 q 820 -34 820 -44 m 682 8 q 643 47 668 47 q 615 34 623 47 q 599 8 607 22 l 682 8 "},"e":{"x_min":250.015625,"x_max":1143.46875,"ha":1389,"o":"m 1143 327 l 1097 237 q 749 677 876 384 q 751 570 749 661 q 754 420 754 479 q 708 183 754 183 l 587 183 l 576 252 l 667 252 l 667 1043 l 757 1043 l 746 1024 l 746 877 q 771 794 746 852 q 811 713 793 741 q 915 801 854 737 q 1010 904 962 852 q 1053 862 1030 883 q 1083 813 1080 833 q 962 737 1030 793 q 849 648 853 650 q 975 469 883 565 q 1143 327 1055 383 m 1055 58 q 1050 48 1054 56 q 1041 39 1047 39 q 1037 41 1037 39 q 1032 42 1036 42 q 1003 -5 1007 42 q 1003 -75 1003 -4 l 984 -75 l 984 62 q 1007 47 994 59 q 1021 64 1026 64 q 1039 61 1028 64 q 1055 58 1050 58 m 630 795 q 515 483 566 578 q 291 237 434 330 l 250 315 q 527 747 466 462 l 302 747 l 302 823 l 529 823 l 548 852 q 630 795 587 832 m 955 -11 l 850 -15 q 850 -22 850 -17 q 894 -59 850 -59 q 929 -31 919 -59 l 951 -31 q 931 -63 952 -48 q 894 -79 911 -79 q 845 -58 865 -79 q 825 -8 825 -37 q 890 64 825 64 q 955 -11 951 64 m 812 -75 q 804 -77 809 -75 q 795 -79 798 -79 q 765 -62 783 -79 l 765 40 q 746 54 758 43 q 762 64 751 64 q 768 89 766 66 q 784 107 768 105 l 784 66 q 808 63 793 63 l 808 44 l 784 44 l 784 -44 q 812 -75 797 -52 m 729 -75 l 707 -75 q 700 -59 707 -66 q 652 -79 675 -79 q 607 -40 607 -79 q 655 2 607 -4 q 702 22 702 8 q 668 47 702 47 q 634 20 640 47 q 622 22 629 20 q 611 25 615 23 q 671 64 618 64 q 726 4 726 64 q 725 -18 726 -2 q 725 -40 725 -31 q 729 -75 725 -61 m 590 113 l 543 -75 l 516 -75 q 470 87 502 -20 l 423 -75 l 397 -75 l 350 113 l 372 113 l 411 -43 q 456 113 426 9 l 483 113 q 529 -43 498 61 l 568 113 l 590 113 m 932 8 q 893 47 918 47 q 864 34 872 47 q 848 8 856 22 l 932 8 m 701 -34 l 701 -8 q 662 -14 683 -10 q 630 -27 641 -17 l 630 -46 q 661 -59 645 -59 q 686 -51 672 -59 q 701 -34 701 -44 "},"J":{"x_min":254.640625,"x_max":1134.921875,"ha":1389,"o":"m 1134 791 l 1094 706 q 896 797 984 737 q 896 735 891 776 l 492 735 q 496 762 496 747 l 493 788 q 290 686 414 737 l 254 759 q 481 877 399 822 q 660 1060 594 954 q 710 1054 685 1057 q 746 1033 743 1049 l 737 1020 q 1134 791 896 855 m 1056 310 q 1039 282 1056 298 q 1010 266 1022 266 l 897 266 l 885 335 l 977 335 l 977 586 l 809 586 l 809 162 l 735 162 l 735 658 l 1056 658 l 1056 310 m 943 -75 l 924 -75 l 924 114 l 943 114 l 943 -75 m 646 273 l 572 273 q 572 293 572 272 q 565 310 572 303 l 418 310 q 418 250 415 280 l 338 250 l 338 658 l 646 658 l 646 273 m 886 -75 l 866 -75 l 866 -68 q 863 -59 866 -62 q 821 -79 845 -79 q 794 -68 811 -79 q 778 -48 778 -58 l 778 63 l 797 63 q 796 40 797 56 q 794 17 794 25 q 828 -59 794 -59 q 867 0 867 -59 q 865 25 867 7 q 864 51 864 43 q 865 63 864 60 l 886 63 l 886 -75 m 746 -5 q 685 -79 746 -79 q 638 -58 656 -79 q 620 -8 620 -37 q 685 64 620 64 q 746 -5 746 64 m 594 -22 q 572 -63 594 -47 q 523 -79 550 -79 q 470 -60 494 -79 q 444 -12 446 -41 l 468 -12 q 484 -43 466 -31 q 523 -55 502 -55 q 571 -23 571 -55 q 511 15 571 -1 q 452 63 452 31 q 519 115 452 115 q 590 60 582 115 l 568 60 q 548 84 564 72 q 519 96 533 96 q 476 65 476 96 q 535 32 476 47 q 594 -22 594 16 m 865 811 q 773 886 826 837 q 687 967 697 959 q 528 811 646 894 l 865 811 m 571 382 l 571 582 l 417 582 l 417 382 l 571 382 m 727 -5 q 715 30 727 13 q 685 47 703 47 q 643 -5 643 47 q 685 -59 643 -59 q 727 -5 727 -59 "},"q":{"x_min":397,"x_max":1002,"ha":1389,"o":"m 1002 234 l 916 234 l 916 289 l 486 289 q 486 219 480 255 l 397 219 l 397 968 l 1002 968 l 1002 234 m 916 -74 l 892 -74 q 892 -63 892 -71 q 892 -39 892 -56 q 892 -14 892 -23 q 861 47 892 47 q 822 -31 822 47 q 822 -51 822 -36 q 822 -74 822 -65 l 805 -74 l 805 64 l 822 64 l 822 58 q 824 43 820 50 q 860 64 840 64 q 916 26 916 64 l 916 -74 m 766 -74 l 745 -74 l 745 -67 q 742 -60 745 -62 q 701 -79 723 -79 q 674 -68 690 -79 q 658 -48 658 -57 l 658 64 l 677 64 q 677 41 677 56 q 677 17 677 26 q 707 -59 677 -59 q 745 0 745 -59 q 745 26 745 7 q 745 52 745 44 q 745 64 745 61 l 766 64 l 766 -74 m 626 -22 q 603 -63 626 -47 q 555 -79 581 -79 q 501 -60 526 -79 q 476 -12 477 -41 l 500 -12 q 518 -44 497 -31 q 556 -55 535 -55 q 605 -23 605 -55 q 544 13 605 -1 q 483 63 483 27 q 551 115 483 115 q 622 60 613 115 l 599 60 q 551 96 584 96 q 508 65 508 96 q 567 32 508 47 q 626 -22 626 16 m 916 674 l 916 891 l 486 891 l 486 674 l 916 674 m 916 364 l 916 598 l 486 598 l 486 364 l 916 364 "},"b":{"x_min":282,"x_max":1114.015625,"ha":1389,"o":"m 1114 243 l 282 243 l 282 325 l 650 325 l 650 693 l 350 693 l 350 781 l 650 781 l 650 1024 l 752 1018 q 742 991 742 991 l 742 781 l 1043 781 l 1043 693 l 742 693 l 742 325 l 1114 325 l 1114 243 m 1000 -75 l 978 -75 q 978 -15 978 -81 q 945 47 978 47 q 908 -2 913 47 q 908 -75 908 -38 l 889 -75 l 889 114 l 908 114 q 908 79 908 97 q 910 47 908 62 q 952 64 926 64 q 1000 22 1000 64 l 1000 -75 m 863 -74 q 857 -76 862 -74 q 847 -79 851 -79 q 818 -62 834 -79 l 818 40 q 796 55 808 44 q 779 41 793 51 q 746 -9 748 27 q 746 -75 746 -41 l 727 -75 l 727 64 q 749 47 736 60 q 764 64 755 64 q 780 64 769 64 q 797 64 791 64 q 818 65 807 64 q 819 91 818 78 q 836 106 820 105 l 836 68 q 860 64 844 64 l 860 47 l 836 47 l 836 -43 q 863 -74 850 -52 m 694 -75 l 670 -75 q 664 -60 670 -66 q 616 -79 639 -79 q 571 -40 571 -79 q 618 2 571 -4 q 666 22 666 8 q 633 47 666 47 q 598 20 604 47 q 586 22 593 20 q 576 25 579 23 q 634 64 583 64 q 689 4 689 64 q 689 -18 689 -2 q 689 -40 689 -31 q 694 -75 689 -61 m 543 -75 l 405 -75 l 405 114 l 538 114 l 538 90 l 427 90 l 427 37 l 530 37 l 530 9 l 427 9 l 427 -50 l 543 -50 l 543 -75 m 666 -34 l 666 -8 q 629 -14 647 -11 q 595 -29 605 -18 l 595 -50 q 625 -59 609 -59 q 652 -52 637 -59 q 666 -34 666 -44 "},"D":{"x_min":254.5625,"x_max":1137.203125,"ha":1389,"o":"m 1137 703 l 931 703 l 860 589 l 1102 589 l 1102 510 l 733 510 l 733 422 l 1081 422 l 1081 347 l 734 347 l 734 166 l 655 166 l 655 343 l 316 343 l 316 422 l 655 422 l 655 510 l 289 510 l 289 589 l 536 589 l 461 703 l 254 703 l 254 779 l 655 779 l 655 868 l 353 868 l 353 943 l 654 943 l 654 1063 l 745 1063 q 733 1044 745 1056 l 733 946 l 1034 946 l 1034 867 l 733 867 l 733 779 l 1137 779 l 1137 703 m 1075 63 q 1040 -41 1058 11 q 990 -131 1019 -98 l 963 -126 l 963 -108 q 1004 -75 1004 -105 q 957 63 1004 -68 l 979 63 q 1018 -43 990 28 l 1055 63 l 1075 63 m 936 -5 q 924 -52 936 -31 q 876 -79 907 -79 q 845 -63 868 -79 q 845 -126 838 -91 l 820 -126 l 820 63 l 836 63 q 843 47 838 57 q 881 64 858 64 q 936 -5 936 64 m 789 -5 q 776 -52 789 -33 q 730 -79 759 -79 q 697 -63 721 -79 q 697 -126 691 -91 l 674 -126 l 674 63 l 689 63 q 696 47 690 57 q 733 64 714 64 q 789 -5 789 64 m 641 -75 l 619 -75 q 612 -59 619 -66 q 565 -79 587 -79 q 519 -40 519 -79 q 532 -9 519 -17 q 587 4 550 0 q 615 22 615 7 q 580 47 615 47 q 547 21 552 47 q 531 23 537 21 q 523 25 525 25 q 583 64 533 64 q 639 5 639 64 q 638 -16 639 -1 q 638 -40 638 -31 q 641 -75 638 -61 m 486 -75 l 461 -75 q 461 17 466 -31 l 366 17 l 366 -75 l 342 -75 l 342 114 l 364 114 l 364 34 l 456 34 q 465 70 466 45 q 465 114 465 114 l 486 114 l 486 -75 m 838 702 l 556 702 l 632 588 l 776 588 q 838 702 789 615 m 916 -5 q 876 47 916 47 q 847 28 858 47 q 837 -5 837 9 q 876 -59 837 -59 q 905 -43 894 -59 q 916 -5 916 -26 m 769 -5 q 730 47 769 47 q 700 28 711 47 q 690 -5 690 9 q 730 -59 690 -59 q 758 -43 747 -59 q 769 -5 769 -26 m 613 -34 l 613 -8 q 569 -16 591 -12 q 543 -27 554 -19 l 543 -47 q 573 -59 558 -59 q 613 -34 615 -55 "},"z":{"x_min":249.546875,"x_max":1145.625,"ha":1389,"o":"m 1145 256 l 1105 178 q 830 324 978 206 q 532 166 693 201 l 503 240 q 769 378 668 278 q 652 551 699 459 q 549 420 595 473 q 499 481 545 424 q 697 865 647 637 l 514 865 q 570 831 533 854 q 464 463 464 673 q 468 328 464 424 q 472 170 472 231 l 394 170 l 394 551 l 295 463 l 249 526 q 488 866 410 656 l 274 866 l 274 943 l 652 943 l 652 1050 l 745 1050 l 733 1033 l 733 946 l 1113 946 l 1113 865 l 730 865 q 788 834 769 851 l 745 756 l 958 754 l 985 773 q 1059 727 1010 760 q 980 553 1040 695 q 884 387 934 445 q 1145 256 969 310 m 1003 -75 q 996 -77 1002 -75 q 987 -79 991 -79 q 957 -62 974 -79 l 957 40 q 937 54 949 43 q 953 64 942 64 q 959 89 957 66 q 976 107 960 105 l 976 66 q 999 63 984 63 l 999 44 l 976 44 l 976 -44 q 1003 -75 989 -52 m 917 -75 l 893 -75 q 895 -15 895 -81 q 862 47 895 47 q 824 -2 829 47 q 824 -75 824 -38 l 806 -75 l 806 114 l 827 114 q 824 79 824 97 q 828 47 824 62 q 869 64 843 64 q 917 22 917 64 l 917 -75 m 618 87 l 600 87 l 600 113 l 618 113 l 618 87 m 765 -94 q 743 -119 765 -108 q 705 -131 722 -131 q 651 -87 666 -131 q 683 -105 666 -96 q 717 -111 694 -111 q 745 -80 730 -111 l 742 -59 q 703 -75 718 -75 q 662 -52 678 -75 q 646 -4 646 -30 q 711 64 646 64 q 744 47 735 64 q 745 63 746 50 l 765 63 l 765 -94 m 618 -75 l 600 -75 l 600 63 l 618 63 l 618 -75 m 556 -75 l 531 -75 l 437 67 l 437 -75 l 412 -75 l 412 114 l 434 114 l 535 -31 l 535 114 l 556 114 l 556 -75 m 945 690 l 724 690 q 691 620 691 626 q 745 523 691 592 q 824 435 792 463 q 945 690 898 526 m 745 -5 q 708 47 745 47 q 670 -4 670 47 q 708 -55 670 -55 q 745 -5 745 -55 m 872 588 q 827 538 857 569 q 741 616 798 565 q 787 666 762 643 q 872 588 836 630 "},"w":{"x_min":245.328125,"x_max":1150.359375,"ha":1389,"o":"m 1150 791 q 1105 717 1136 766 q 862 948 929 823 q 652 694 777 782 l 598 763 q 737 892 673 807 q 830 1058 799 971 q 917 1038 861 1053 l 904 1020 q 1008 887 930 955 q 1150 791 1073 830 m 1015 687 l 739 687 l 739 761 l 1015 761 l 1015 687 m 1143 227 q 1064 186 1121 209 q 1024 249 1042 249 q 836 223 988 249 q 669 186 676 197 q 643 231 655 195 q 623 284 626 280 q 663 277 645 277 q 730 322 705 277 q 765 415 747 349 q 793 501 783 481 q 747 507 774 505 q 697 505 729 507 q 651 504 661 504 q 654 540 655 524 l 651 570 q 595 551 633 565 q 580 595 589 577 q 491 594 513 590 l 490 170 l 412 170 l 412 572 q 393 579 393 579 q 266 559 375 579 q 245 645 245 608 l 277 644 q 392 715 343 638 q 257 818 371 741 q 298 880 275 851 l 334 857 l 449 1051 q 519 1009 473 1037 l 388 819 q 441 782 405 805 l 548 940 q 584 916 558 932 q 619 886 606 904 q 521 779 596 876 q 427 652 474 716 l 459 651 q 549 658 481 650 l 527 716 q 590 737 567 733 q 669 579 638 657 l 1122 579 l 1122 504 l 892 504 l 797 297 l 826 295 q 992 312 872 294 q 913 419 978 347 q 981 448 985 448 q 1064 349 996 448 q 1143 227 1127 261 m 1103 -10 l 998 -15 q 996 -22 996 -17 q 1042 -59 996 -59 q 1077 -31 1067 -59 l 1099 -31 q 1079 -63 1100 -48 q 1042 -79 1059 -79 q 992 -58 1011 -79 q 973 -8 973 -37 q 1038 64 973 64 q 1103 -10 1099 64 m 638 337 q 556 321 599 331 q 512 506 545 415 q 543 510 522 506 q 574 515 565 515 q 615 437 590 515 q 638 337 638 365 m 964 59 q 959 49 963 57 q 950 40 956 40 q 945 42 946 40 q 940 43 945 43 q 911 -5 917 43 q 913 -75 913 -4 l 893 -74 l 893 62 q 915 47 903 59 q 929 64 935 64 q 947 61 936 64 q 964 59 959 59 m 854 -75 l 833 -75 l 833 -68 q 830 -59 834 -62 q 789 -79 812 -79 q 762 -68 779 -79 q 746 -49 746 -58 l 746 62 l 765 62 q 764 40 765 55 q 762 16 762 25 q 796 -60 762 -60 q 836 -1 836 -60 q 834 25 836 8 q 832 53 832 43 q 834 62 832 60 l 854 62 l 854 -75 m 725 -74 q 718 -76 723 -74 q 708 -79 712 -79 q 679 -62 696 -79 l 679 40 q 658 54 670 43 q 674 64 663 64 q 680 88 679 66 q 697 106 682 105 l 697 67 q 720 63 705 63 l 720 44 l 697 44 l 697 -44 q 725 -74 711 -53 m 367 494 q 323 258 357 415 q 253 286 278 277 q 285 507 285 407 q 367 494 328 502 m 503 87 l 484 87 l 484 113 l 503 113 l 503 87 m 653 -29 q 596 -79 642 -79 q 536 -8 536 -79 q 596 64 536 64 q 645 20 648 64 l 627 20 q 596 47 621 47 q 559 -11 559 47 q 596 -59 559 -59 q 631 -23 623 -59 q 653 -29 637 -28 m 503 -75 l 484 -75 l 484 62 l 503 62 l 503 -75 m 448 56 q 409 4 448 15 q 336 0 388 -1 q 333 -37 333 -16 q 336 -75 333 -57 l 309 -75 l 309 115 l 394 115 q 433 98 417 115 q 448 56 448 81 m 1079 8 q 1038 47 1063 47 q 1011 34 1019 47 q 995 8 1002 22 l 1079 8 m 424 59 q 402 90 424 90 l 333 90 l 333 23 l 398 23 q 424 59 424 23 "},"\\":{"x_min":293.859375,"x_max":1126.015625,"ha":1389,"o":"m 1126 242 q 1056 194 1110 230 q 1024 234 1041 203 q 996 281 1003 273 q 638 242 857 269 q 331 189 338 206 q 307 235 320 196 q 293 288 300 262 l 655 324 l 656 531 l 438 531 q 438 461 435 504 l 361 461 l 361 864 l 654 864 l 654 1026 l 745 1026 l 733 1008 l 733 867 l 1026 867 l 1026 532 l 734 532 l 734 328 l 745 328 q 948 348 774 327 q 864 454 921 390 l 925 504 q 1126 242 1027 406 m 912 -94 q 890 -119 912 -108 q 852 -131 868 -131 q 798 -87 813 -131 q 829 -106 798 -87 q 865 -111 840 -111 q 893 -80 876 -111 l 890 -59 q 851 -75 866 -75 q 808 -52 824 -75 q 793 -4 793 -30 q 861 64 793 64 q 890 47 879 64 q 893 62 893 50 l 912 62 l 912 -94 m 767 -75 l 746 -75 l 747 -68 q 744 -59 747 -62 q 702 -79 725 -79 q 674 -68 691 -79 q 658 -48 658 -58 l 658 62 l 677 62 q 676 40 677 55 q 674 16 674 25 q 708 -59 674 -59 q 748 -1 748 -59 q 747 24 748 6 q 745 51 745 43 q 747 62 745 59 l 767 62 l 767 -75 m 626 -19 q 611 -57 626 -40 q 577 -75 597 -75 l 485 -75 l 485 115 l 565 115 q 602 101 585 115 q 620 67 620 87 q 594 26 620 42 q 626 -19 626 8 m 947 607 l 947 792 l 734 792 l 734 606 l 947 607 m 654 607 l 654 793 l 439 793 l 439 607 l 654 607 m 893 -5 q 855 47 893 47 q 816 -4 816 47 q 855 -55 816 -55 q 893 -5 893 -55 m 594 61 q 587 79 594 69 q 572 90 580 90 l 508 90 l 508 36 l 577 36 q 594 61 594 51 m 602 -19 q 595 0 602 -9 q 576 11 587 11 l 508 11 l 508 -51 l 580 -51 q 595 -39 588 -51 q 602 -19 602 -27 "},"~":{"x_min":112.515625,"x_max":577.921875,"ha":695,"o":"m 159 279 q 136 276 147 273 q 118 286 125 279 q 112 305 112 294 q 122 327 112 316 q 187 372 159 358 q 238 387 215 386 q 281 381 261 388 q 325 361 302 373 q 376 335 348 348 q 441 312 404 322 q 475 305 459 308 q 501 304 491 302 q 512 316 511 306 q 504 345 513 326 q 505 372 500 361 q 520 388 511 384 q 542 388 530 393 q 561 370 554 384 q 577 312 579 337 q 561 271 576 287 q 520 248 547 255 q 458 245 493 241 q 401 259 429 248 q 345 284 373 270 q 302 309 325 295 q 254 325 279 322 q 203 312 223 327 q 159 279 183 297 "},"Q":{"x_min":202.390625,"x_max":1197.5625,"ha":1389,"o":"m 1071 453 q 1058 347 1065 432 q 1035 225 1051 263 q 958 170 1012 170 l 827 170 q 814 245 821 186 l 877 244 q 968 268 946 244 q 990 361 990 292 l 988 389 l 718 389 q 563 221 716 292 q 326 162 434 162 q 305 232 320 189 q 490 267 444 251 q 630 386 580 301 l 322 386 l 322 452 l 640 452 q 652 505 653 486 l 652 518 l 361 518 l 361 832 l 746 831 q 519 897 679 855 l 561 949 q 724 916 665 933 l 842 963 l 350 963 l 350 1024 l 946 1024 l 965 1039 q 1039 961 1011 1004 l 1033 963 q 917 932 996 963 q 802 886 860 909 l 825 870 l 798 832 l 1023 832 l 1023 519 l 734 519 q 723 453 721 490 l 1071 453 m 1197 -11 l 1092 -15 l 1092 -22 q 1136 -59 1092 -59 q 1171 -31 1162 -59 l 1193 -31 q 1174 -63 1194 -48 q 1136 -79 1154 -79 q 1087 -58 1107 -79 q 1067 -8 1067 -37 q 1133 64 1067 64 q 1197 -11 1194 64 m 1039 -94 q 1017 -119 1039 -108 q 980 -131 995 -131 q 925 -87 940 -131 q 954 -103 940 -96 q 991 -111 969 -111 q 1018 -80 1004 -111 l 1016 -59 q 977 -75 992 -75 q 936 -52 952 -75 q 921 -4 921 -30 q 985 64 921 64 q 1017 47 1009 64 q 1020 63 1021 51 l 1039 63 l 1039 -94 m 901 -75 l 878 -75 q 871 -59 877 -66 q 824 -79 845 -79 q 778 -40 778 -79 q 825 2 778 -4 q 873 22 873 8 q 839 47 873 47 q 805 20 812 47 q 782 24 798 22 q 842 64 792 64 q 892 38 881 64 q 896 -17 898 23 q 901 -75 895 -58 m 765 58 q 762 48 765 56 q 751 40 758 40 q 747 41 748 40 q 741 43 746 43 q 714 -7 718 43 q 714 -75 714 -7 l 695 -74 l 695 62 q 717 47 704 59 q 732 64 733 64 q 748 61 737 64 q 765 58 760 59 m 656 -75 l 635 -75 l 636 -68 q 633 -59 636 -62 q 591 -79 614 -79 q 563 -68 580 -79 q 547 -49 547 -58 l 547 62 l 566 62 q 565 39 566 55 q 565 16 565 24 q 597 -60 565 -60 q 637 -1 637 -60 q 636 25 637 7 q 635 52 635 42 q 636 62 635 58 l 656 62 l 656 -75 m 515 -5 q 454 -79 515 -79 q 407 -57 426 -79 q 389 -8 389 -35 q 454 64 389 64 q 515 -5 515 64 m 369 -22 q 339 -60 369 -41 q 289 -79 310 -79 q 226 -49 249 -79 q 202 19 202 -20 q 226 87 202 60 q 291 115 251 115 q 364 65 344 115 l 346 55 q 322 82 334 69 q 289 95 310 95 q 226 19 226 95 q 242 -33 226 -11 q 289 -55 259 -55 q 345 -8 339 -55 q 369 -22 369 -14 m 947 708 l 947 766 l 731 766 l 730 708 l 947 708 m 947 583 l 947 644 l 731 644 l 731 583 l 947 583 m 650 707 l 649 767 l 440 767 l 440 705 l 650 707 m 1173 7 q 1135 47 1160 47 q 1107 34 1115 47 q 1092 7 1098 22 l 1173 7 m 650 583 l 650 645 l 440 645 l 440 583 l 650 583 m 1019 -5 q 981 47 1019 47 q 944 -4 944 47 q 981 -55 944 -55 q 1019 -5 1019 -55 m 872 -35 l 872 -8 q 833 -14 854 -11 q 801 -28 812 -18 l 801 -47 q 830 -60 816 -60 q 872 -35 872 -60 m 495 -5 q 484 29 495 12 q 454 47 472 47 q 412 -5 412 47 q 454 -59 412 -59 q 495 -5 495 -59 "},"M":{"x_min":286.140625,"x_max":1134.8125,"ha":1389,"o":"m 1134 591 l 1093 512 q 894 639 980 551 q 807 568 812 573 q 711 508 754 529 q 662 586 697 525 q 837 700 775 641 q 754 917 768 817 l 715 921 l 715 992 l 1016 992 l 1033 1011 q 1107 958 1082 979 q 1029 826 1090 933 q 944 700 983 746 q 1134 591 1001 650 m 1126 279 q 1052 222 1101 259 q 976 330 1015 276 q 888 430 930 393 q 958 483 912 447 q 1126 279 1083 381 m 705 910 q 661 797 683 854 q 602 689 633 729 q 682 633 609 683 q 633 555 666 607 q 556 615 602 584 q 322 476 412 498 q 290 550 300 518 q 491 659 418 586 q 398 714 455 686 q 379 679 386 694 q 309 711 358 687 l 388 871 l 286 871 l 286 947 l 418 947 q 461 1067 433 987 l 538 1039 q 500 950 526 1008 q 620 948 509 948 q 640 959 627 948 l 705 910 m 788 381 q 707 329 765 362 q 643 447 690 366 q 679 468 647 448 q 712 483 707 483 q 788 381 722 483 m 940 294 q 764 180 940 180 q 732 180 758 180 q 686 179 706 179 q 517 231 517 179 l 517 487 l 595 487 l 607 479 l 595 460 l 595 272 q 772 254 629 254 q 831 262 813 254 q 857 304 849 270 q 872 337 865 337 q 940 316 888 337 l 940 294 m 1038 63 q 1005 -38 1022 12 q 954 -131 984 -98 l 929 -126 l 929 -108 q 968 -75 968 -107 q 920 63 968 -68 l 943 63 q 982 -43 955 26 l 1020 63 l 1038 63 m 916 58 q 911 48 915 56 q 902 40 908 40 q 898 41 898 40 q 893 43 897 43 q 864 -5 868 43 q 864 -75 864 -4 l 845 -75 l 845 62 q 868 47 855 59 q 882 64 887 64 q 900 61 889 64 q 916 58 911 58 m 801 -94 q 778 -119 801 -108 q 741 -131 756 -131 q 687 -87 702 -131 q 716 -103 702 -96 q 754 -111 730 -111 q 782 -80 766 -111 l 778 -59 q 740 -75 753 -75 q 697 -52 713 -75 q 682 -4 682 -30 q 748 64 682 64 q 779 47 770 64 q 782 63 782 49 l 801 63 l 801 -94 m 463 415 q 416 315 441 387 q 379 206 398 261 q 293 238 351 216 q 366 448 341 361 q 463 415 398 437 m 659 -75 l 636 -75 q 636 -15 636 -79 q 605 47 636 47 q 568 -2 573 47 q 566 -75 566 -38 l 549 -75 l 549 63 l 567 63 l 567 57 q 569 43 567 50 q 604 64 585 64 q 659 26 659 64 l 659 -75 m 528 -75 l 501 -75 q 473 -15 493 -54 l 403 -15 q 380 -75 385 -48 l 353 -75 l 425 115 l 451 115 l 528 -75 m 987 920 l 825 920 q 894 761 844 821 q 987 920 951 824 m 607 872 l 469 872 q 429 777 464 858 q 546 721 468 759 q 607 872 578 785 m 782 -5 q 744 47 782 47 q 705 -4 705 47 q 744 -55 705 -55 q 782 -5 782 -55 m 472 4 q 438 91 459 33 q 408 4 427 62 l 472 4 "},"C":{"x_min":265.640625,"x_max":1126.609375,"ha":1389,"o":"m 1082 795 l 564 795 l 564 864 l 774 864 l 774 1031 l 860 1031 q 849 1012 860 1018 l 849 867 l 1082 867 l 1082 795 m 511 919 q 458 833 484 869 q 318 922 413 865 q 362 1000 340 966 q 511 919 430 975 m 1126 226 l 496 226 l 496 301 l 822 301 q 872 510 846 372 q 921 765 897 638 l 1027 735 q 968 548 1002 690 q 908 304 914 323 l 1126 304 l 1126 226 m 761 390 q 668 356 734 381 q 643 500 654 452 q 587 705 626 579 q 665 733 615 713 q 761 390 705 658 m 480 680 q 426 598 463 654 l 277 700 q 326 777 284 715 q 480 680 411 727 m 900 62 q 867 -42 883 10 q 815 -131 844 -99 l 790 -126 l 790 -108 q 829 -75 829 -105 q 782 62 829 -68 l 804 62 q 843 -43 815 27 l 882 62 l 900 62 m 504 487 q 433 351 504 478 q 351 190 360 219 q 265 267 328 205 l 437 542 q 504 487 504 490 m 773 58 q 769 49 773 58 q 759 40 765 40 q 754 41 755 40 l 754 41 q 750 43 754 43 q 720 -7 725 43 q 720 -75 720 -2 l 702 -75 l 702 62 q 725 47 712 58 q 738 63 727 52 q 763 61 754 63 q 773 58 773 58 m 671 -22 q 637 -64 671 -45 q 591 -79 611 -79 q 526 -48 549 -79 q 504 19 504 -18 q 526 86 504 58 q 593 114 549 114 q 666 64 646 114 q 657 59 664 62 q 648 55 650 56 q 625 82 637 69 q 591 95 614 95 q 528 19 528 95 q 591 -55 528 -55 q 647 -8 641 -55 q 671 -22 671 -19 "},"[":{"x_min":262,"x_max":1138.46875,"ha":1389,"o":"m 1138 379 l 1096 290 q 892 436 997 334 q 735 638 787 538 l 735 176 l 650 176 l 650 626 q 503 431 601 531 q 310 277 404 331 l 262 360 q 489 537 374 414 q 638 782 612 668 l 298 782 l 298 867 l 650 867 l 650 1035 l 745 1035 l 735 1016 l 735 867 l 1102 867 l 1102 782 l 749 782 q 902 544 774 669 q 1138 379 1020 429 m 959 -11 l 854 -15 q 854 -22 854 -18 q 898 -60 854 -60 q 932 -31 923 -60 l 955 -31 q 935 -63 956 -48 q 898 -79 914 -79 q 849 -58 869 -79 q 829 -8 829 -37 q 894 64 829 64 q 959 -11 955 64 m 812 -11 l 706 -15 q 706 -22 706 -18 q 750 -60 706 -60 q 784 -31 775 -60 l 807 -31 q 788 -63 808 -48 q 750 -79 768 -79 q 701 -58 721 -79 q 681 -8 681 -37 q 746 64 681 64 q 812 -11 807 64 m 677 59 q 673 50 677 57 q 663 43 670 43 q 658 43 659 43 q 653 43 657 43 q 625 -5 630 43 q 625 -75 625 -4 l 607 -75 l 607 64 q 628 47 615 60 q 643 64 647 64 q 661 61 649 64 q 677 59 673 59 m 578 92 l 516 92 l 516 -75 l 492 -75 l 492 92 q 432 92 463 94 l 432 114 l 578 114 l 578 92 m 935 8 q 897 47 920 47 q 869 34 877 47 q 854 8 862 22 l 935 8 m 788 8 q 749 47 774 47 q 720 34 728 47 q 706 8 712 22 l 788 8 "},"L":{"x_min":234.703125,"x_max":1141.59375,"ha":1389,"o":"m 1075 520 q 1020 487 1051 509 q 940 605 995 527 q 990 638 975 638 q 1037 587 1005 638 q 1075 520 1062 548 m 1141 242 q 1122 167 1138 218 l 1086 167 q 811 246 1022 167 q 488 167 624 167 q 468 238 474 200 q 609 252 597 249 q 745 287 688 262 q 667 361 698 324 q 513 277 582 301 q 479 336 493 299 q 597 398 560 373 q 693 492 652 436 l 666 537 l 666 654 l 537 654 q 537 568 531 616 l 468 568 l 468 701 l 570 701 l 570 932 l 732 932 l 732 957 l 732 982 l 493 982 l 493 1031 l 1110 1031 l 1110 985 l 821 985 q 801 935 805 954 l 999 935 l 999 701 q 1130 701 1007 701 l 1130 572 l 1068 572 l 1068 651 l 812 651 q 860 588 830 631 q 802 551 844 576 q 753 628 796 562 q 781 655 771 642 l 733 655 l 733 548 q 762 528 733 530 q 805 528 760 528 q 866 533 853 528 q 888 590 887 544 q 959 569 912 584 q 945 525 958 566 q 919 485 937 500 l 776 485 q 741 444 763 472 q 822 441 767 441 q 966 456 934 441 l 1038 399 q 880 283 987 358 q 1141 242 965 251 m 658 579 q 610 522 638 565 q 569 455 570 456 q 510 492 549 469 q 591 615 566 548 q 658 579 627 599 m 483 1030 q 447 926 465 1010 q 416 808 425 827 l 444 792 l 432 772 l 432 163 l 350 163 l 350 662 q 316 607 325 619 q 274 559 297 577 l 234 628 q 393 1051 374 803 q 483 1030 426 1046 m 943 -75 l 924 -75 l 924 -68 q 922 -59 924 -62 q 884 -79 908 -79 q 843 -54 861 -79 q 825 -5 825 -30 q 891 64 825 64 q 922 47 913 64 q 924 75 924 59 q 920 114 924 93 l 943 114 l 943 -75 m 650 87 l 632 87 l 632 114 l 650 114 l 650 87 m 801 -75 l 777 -75 q 779 -15 779 -79 q 747 47 779 47 q 711 -2 715 47 q 710 -75 710 -38 l 690 -75 l 690 63 l 710 63 l 710 57 q 712 43 710 50 q 747 64 727 64 q 801 26 801 64 l 801 -75 m 650 -75 l 632 -75 l 632 63 l 650 63 l 650 -75 m 607 -74 q 597 -76 603 -76 q 547 -36 579 -76 q 505 19 526 -8 q 472 -26 472 -2 q 475 -43 472 -31 q 478 -61 478 -55 q 475 -75 478 -68 l 453 -75 l 453 114 l 478 114 q 476 63 476 88 q 478 23 476 43 l 572 114 l 603 113 l 528 37 q 607 -74 561 -12 m 936 860 l 936 902 l 635 902 l 639 860 l 936 860 m 936 782 l 936 829 l 635 829 l 635 782 l 936 782 m 936 704 l 936 751 l 635 751 l 639 704 l 936 704 m 916 392 l 721 392 q 767 352 728 383 q 810 321 805 321 q 916 392 828 321 m 925 -5 q 886 47 925 47 q 848 -5 848 47 q 888 -59 848 -59 q 925 -5 925 -59 "}," ":{"x_min":0,"x_max":0,"ha":1389},"X":{"x_min":270.59375,"x_max":1130.640625,"ha":1389,"o":"m 1108 584 l 817 584 q 817 493 811 542 l 739 493 l 739 1050 l 821 1050 l 821 1045 q 813 1026 819 1035 l 813 954 l 1081 954 l 1081 887 l 813 887 l 813 807 l 1035 807 l 1035 743 l 813 743 l 813 649 l 1108 649 l 1108 584 m 1130 291 q 1069 233 1109 272 q 908 413 1016 295 q 966 472 911 416 q 1130 291 1027 411 m 655 1047 q 644 941 646 1037 q 644 759 642 875 q 647 636 647 618 q 551 515 647 581 q 401 449 465 458 q 373 518 391 472 q 559 621 484 544 q 549 622 559 622 q 419 601 517 622 q 299 564 313 578 q 270 650 285 576 q 572 686 430 661 l 572 740 l 349 740 l 349 807 l 572 807 l 572 887 l 298 887 l 298 950 l 569 950 l 569 1051 l 655 1047 m 801 366 q 736 320 795 361 q 650 441 708 362 q 678 466 655 448 q 708 483 701 483 q 757 431 719 483 q 801 366 786 393 m 948 312 q 920 233 934 272 q 858 186 902 186 l 564 186 q 524 201 545 186 q 504 236 504 216 l 504 442 q 564 445 541 445 q 594 442 589 445 q 583 423 583 433 l 583 276 l 596 261 l 826 261 q 855 290 844 261 q 869 333 862 311 l 885 333 q 948 312 895 333 m 912 -75 l 892 -75 l 892 -68 q 889 -59 892 -62 q 852 -79 876 -79 q 809 -56 826 -79 q 793 -5 793 -33 q 860 64 793 64 q 889 47 878 64 q 892 74 892 59 q 888 114 892 93 l 912 114 l 912 -75 m 773 -75 l 750 -75 q 743 -59 750 -66 q 695 -79 718 -79 q 650 -40 650 -79 q 698 2 650 -4 q 746 22 746 8 q 712 47 746 47 q 677 20 683 47 q 666 22 673 20 q 655 24 658 23 q 714 64 664 64 q 770 5 770 64 q 770 -16 770 -1 q 769 -40 769 -31 q 773 -75 769 -61 m 448 402 q 398 305 429 376 q 343 209 369 241 q 277 243 311 230 q 326 336 283 256 q 366 431 355 391 q 448 402 393 423 m 626 -22 q 603 -63 626 -47 q 555 -79 581 -79 q 501 -60 526 -79 q 476 -12 477 -41 l 500 -12 q 517 -44 497 -31 q 555 -55 534 -55 q 602 -23 602 -55 q 542 13 602 -1 q 483 63 483 27 q 551 115 483 115 q 621 60 613 115 l 599 60 q 551 96 584 96 q 508 65 508 96 q 567 32 508 47 q 626 -22 626 16 m 893 -5 q 855 47 893 47 q 817 -5 817 47 q 857 -59 817 -59 q 893 -5 893 -59 m 746 -34 l 746 -8 q 708 -13 726 -11 q 675 -27 684 -18 l 675 -47 q 704 -59 690 -59 q 746 -34 746 -59 "},"P":{"x_min":211,"x_max":1182,"ha":1389,"o":"m 1058 462 q 949 213 1056 213 l 777 213 q 766 301 771 246 q 915 309 884 301 q 966 367 958 320 q 972 520 972 394 l 972 750 l 725 750 l 726 722 q 623 393 731 553 q 349 186 511 229 l 304 280 q 543 460 450 317 q 630 749 630 593 l 353 749 l 353 832 l 633 832 l 633 1026 l 707 1029 q 741 1026 735 1029 l 725 999 l 725 835 l 1058 835 l 1058 462 m 1182 -75 l 1159 -75 q 1159 -15 1159 -79 q 1129 47 1159 47 q 1091 -2 1097 47 q 1090 -75 1090 -38 l 1072 -75 l 1072 114 l 1094 114 q 1091 79 1091 97 q 1093 47 1091 62 q 1134 64 1109 64 q 1182 22 1182 64 l 1182 -75 m 1047 -74 q 1039 -76 1045 -74 q 1029 -79 1033 -79 q 1000 -62 1017 -79 l 1000 40 q 980 54 991 43 q 997 64 984 64 q 1001 88 1000 66 q 1020 107 1002 105 l 1020 67 q 1043 63 1026 63 l 1043 44 l 1020 44 l 1020 -44 q 1047 -74 1032 -52 m 956 -94 q 934 -119 956 -108 q 897 -131 912 -131 q 842 -87 857 -131 q 874 -106 857 -96 q 909 -111 885 -111 q 937 -80 923 -111 l 933 -59 q 894 -75 910 -75 q 853 -52 869 -75 q 838 -4 838 -30 q 903 64 838 64 q 935 47 926 64 q 938 63 938 50 l 956 63 l 956 -94 m 813 -75 l 790 -75 q 792 -15 792 -79 q 759 47 792 47 q 722 -2 727 47 q 721 -75 722 -38 l 703 -75 l 703 63 l 721 63 l 721 57 q 723 43 721 50 q 760 64 739 64 q 813 26 813 64 l 813 -75 m 673 -11 l 568 -15 q 568 -22 568 -17 q 612 -59 568 -59 q 647 -31 637 -59 l 669 -31 q 650 -63 670 -48 q 612 -79 630 -79 q 563 -58 583 -79 q 543 -8 543 -37 q 608 64 543 64 q 673 -11 669 64 m 539 58 q 535 48 539 56 q 525 40 532 40 q 520 41 521 40 q 515 43 519 43 q 488 -5 492 43 q 488 -75 488 -4 l 469 -75 l 469 62 q 490 47 477 59 q 506 64 510 64 q 523 61 511 64 q 539 58 535 58 m 444 -74 q 436 -76 442 -74 q 426 -79 430 -79 q 398 -62 414 -79 l 398 40 q 377 54 389 43 q 395 64 382 64 q 399 88 398 66 q 417 107 400 105 l 417 67 q 440 63 423 63 l 440 44 l 417 44 l 417 -44 q 444 -74 429 -52 m 361 -22 q 338 -63 361 -47 q 290 -79 315 -79 q 236 -60 259 -79 q 211 -12 212 -41 l 233 -12 q 283 -55 243 -55 q 337 -23 337 -55 q 277 17 337 4 q 218 64 218 29 q 286 115 218 115 q 356 60 348 115 l 334 60 q 313 84 329 72 q 286 96 298 96 q 241 65 241 96 q 301 30 241 41 q 361 -22 361 19 m 937 -5 q 899 47 937 47 q 862 -4 862 47 q 899 -55 862 -55 q 937 -5 937 -55 m 649 8 q 610 47 634 47 q 582 34 590 47 q 567 8 574 22 l 649 8 "},"T":{"x_min":305.828125,"x_max":1135.109375,"ha":1389,"o":"m 1135 260 l 1099 174 l 1082 174 q 823 298 971 174 q 647 527 680 417 l 485 527 l 489 286 l 757 339 q 769 274 766 300 q 364 176 507 197 l 347 153 q 305 256 329 183 q 410 275 337 260 l 410 951 l 648 951 l 648 1056 l 743 1056 l 757 1046 l 741 1025 l 741 954 l 979 954 l 979 527 q 1024 554 999 536 q 1061 527 1053 532 q 1090 492 1083 507 q 976 435 1042 476 q 869 366 922 401 q 996 298 918 326 q 1135 260 1032 285 m 999 -75 l 980 -75 l 980 -68 q 977 -59 980 -62 q 940 -79 962 -79 q 897 -56 914 -79 q 881 -5 881 -33 q 949 64 881 64 q 978 47 967 64 q 980 74 980 59 q 975 114 980 93 l 999 114 l 999 -75 m 861 -5 q 799 -79 861 -79 q 751 -58 770 -79 q 733 -8 733 -37 q 799 64 733 64 q 861 -5 861 64 m 714 -5 q 653 -79 714 -79 q 606 -58 624 -79 q 588 -8 588 -37 q 653 64 588 64 q 714 -5 714 64 m 562 -45 q 483 -79 535 -79 q 415 -51 442 -79 q 389 18 389 -24 q 490 115 389 115 q 558 59 543 115 q 536 55 546 56 q 480 95 522 95 q 413 18 413 95 q 482 -55 413 -55 q 540 -33 515 -55 l 540 -5 q 527 0 535 -1 q 508 1 519 1 q 491 0 496 0 l 485 0 l 485 19 l 562 19 l 562 -45 m 900 778 l 900 876 l 485 876 l 485 778 l 900 778 m 900 604 l 900 702 l 485 702 l 485 604 l 900 604 m 976 526 l 730 526 q 767 466 754 484 q 811 412 789 431 l 976 526 m 980 -5 q 941 47 980 47 q 904 -5 904 47 q 944 -59 904 -59 q 980 -5 980 -59 m 841 -5 q 829 29 841 12 q 800 47 816 47 q 758 -5 758 47 q 800 -59 758 -59 q 841 -5 841 -59 m 694 -5 q 682 29 694 12 q 652 47 670 47 q 611 -5 611 47 q 652 -59 611 -59 q 694 -5 694 -59 "},"a":{"x_min":278,"x_max":1109.890625,"ha":1389,"o":"m 1109 923 l 863 923 l 863 871 l 1007 871 l 1007 675 l 383 675 l 383 871 l 520 871 l 520 924 l 278 924 l 278 988 l 518 988 q 518 1063 520 1025 l 610 1059 l 598 1040 l 598 989 l 787 989 q 787 1063 791 1023 l 876 1059 l 863 1040 l 863 989 l 1109 989 l 1109 923 m 1109 476 l 1036 476 l 1036 567 l 677 567 q 639 510 657 543 l 890 508 l 918 527 q 987 473 965 496 q 722 244 905 334 q 377 158 548 158 q 352 233 370 183 q 513 246 466 239 q 666 295 604 260 q 600 348 651 315 q 527 384 549 381 q 458 340 477 352 q 381 309 416 317 q 350 376 370 331 q 487 448 415 390 q 591 567 554 502 l 354 567 l 354 468 l 278 468 l 278 631 l 1109 631 l 1109 476 m 1075 -75 l 1055 -75 q 1056 -19 1056 -79 q 1029 47 1056 47 q 991 -23 991 47 q 992 -50 991 -33 q 995 -75 994 -66 l 972 -75 l 972 29 q 948 47 972 47 q 912 -1 917 47 q 912 -72 912 -3 l 911 -75 l 893 -75 l 893 63 l 912 63 l 911 57 q 913 47 911 51 q 952 64 930 64 q 990 43 979 64 q 1002 53 991 43 q 1036 64 1013 64 q 1075 37 1075 64 l 1075 -75 m 861 -75 l 837 -75 q 830 -59 837 -66 q 783 -79 805 -79 q 737 -40 737 -79 q 785 2 737 -4 q 833 22 833 8 q 800 47 833 47 q 765 20 770 47 q 741 25 756 22 q 801 64 750 64 q 851 38 840 64 q 856 -17 858 23 q 861 -75 854 -58 m 718 -11 l 612 -15 l 611 -22 q 657 -59 611 -59 q 691 -31 682 -59 l 713 -31 q 693 -63 713 -48 q 657 -79 673 -79 q 606 -58 626 -79 q 587 -8 587 -37 q 652 64 587 64 q 718 -11 713 64 m 582 58 q 577 48 581 56 q 568 39 574 39 q 564 41 564 39 q 559 42 563 42 q 530 -7 534 42 q 530 -75 530 -2 l 511 -75 l 511 62 q 534 47 521 59 q 548 64 550 64 q 566 61 555 64 q 582 58 577 58 m 480 19 q 461 -44 480 -13 q 409 -75 442 -75 l 326 -75 l 326 115 l 402 115 q 460 84 439 115 q 480 19 480 59 m 932 740 l 932 807 l 815 807 l 815 740 l 932 740 m 787 871 l 787 923 l 599 923 l 599 871 l 787 871 m 748 740 l 748 807 l 641 807 l 641 740 l 748 740 m 575 740 l 575 807 l 462 807 l 462 740 l 575 740 m 861 447 l 605 447 q 579 424 588 447 q 722 353 637 402 q 745 341 743 341 q 807 385 759 341 q 861 447 850 428 m 833 -34 l 833 -8 q 795 -13 813 -10 q 762 -27 772 -17 l 762 -46 q 791 -59 777 -59 q 818 -51 804 -59 q 833 -34 833 -44 m 694 8 q 654 47 680 47 q 626 34 634 47 q 611 8 618 22 l 694 8 m 455 19 q 445 63 455 40 q 413 90 431 90 l 350 90 l 350 -51 l 413 -51 q 444 -23 431 -51 q 455 19 455 0 "},"=":{"x_min":262.8125,"x_max":1138.625,"ha":1389,"o":"m 1138 490 l 1105 416 q 922 540 1030 462 l 922 191 l 854 191 l 854 214 l 543 214 l 538 179 l 469 179 l 469 515 q 298 397 401 455 q 262 466 286 419 q 382 543 322 505 q 487 636 448 588 l 282 636 l 282 698 l 536 698 q 583 775 571 744 l 378 775 l 378 840 l 608 840 q 632 906 618 861 l 327 906 l 327 971 l 643 971 q 667 1058 661 1011 q 757 1045 698 1056 q 725 974 746 1022 l 1062 974 l 1062 909 l 714 909 l 690 843 l 1015 843 l 1015 778 l 812 778 q 867 698 816 758 l 1117 698 l 1117 636 l 923 635 q 1138 490 955 595 m 1058 -94 q 1037 -119 1058 -108 q 1000 -131 1015 -131 q 944 -87 960 -131 q 976 -106 944 -87 q 1012 -111 985 -111 q 1038 -80 1021 -111 l 1035 -59 q 996 -75 1013 -75 q 955 -52 971 -75 q 940 -4 940 -30 q 1008 64 940 64 q 1037 47 1026 64 q 1040 62 1040 50 l 1058 62 l 1058 -94 m 765 87 l 746 87 l 746 114 l 765 114 l 765 87 m 917 -75 l 893 -75 q 893 -64 893 -72 q 893 -40 893 -56 q 894 -15 894 -23 q 862 47 894 47 q 821 -32 821 47 q 823 -52 821 -37 q 824 -75 824 -67 l 805 -75 l 805 62 l 824 62 l 824 57 q 827 43 823 50 q 862 64 842 64 q 917 27 917 64 l 917 -75 m 765 -75 l 746 -75 l 746 62 l 765 62 l 765 -75 m 729 58 q 725 48 729 56 q 716 40 722 40 q 711 41 711 40 q 705 43 711 43 q 678 -5 682 43 q 678 -75 678 -4 l 659 -74 l 659 62 q 680 47 669 59 q 695 64 700 64 q 713 61 701 64 q 729 58 725 58 m 626 -5 q 611 -56 626 -34 q 566 -79 596 -79 q 534 -63 558 -79 q 532 -93 532 -76 q 534 -126 532 -110 l 510 -126 l 510 62 l 526 62 q 533 47 528 57 q 569 64 548 64 q 626 -5 626 64 m 481 -21 q 458 -62 481 -46 q 408 -79 435 -79 q 355 -60 379 -79 q 329 -12 331 -41 l 353 -12 q 403 -55 363 -55 q 456 -23 456 -55 q 397 13 456 -1 q 337 63 337 27 q 404 115 337 115 q 475 60 467 115 l 453 60 q 433 84 449 72 q 404 95 418 95 q 361 65 361 95 q 391 36 361 42 q 449 25 421 31 q 481 -21 481 15 m 778 699 q 737 777 748 741 l 664 777 q 628 699 655 752 l 778 699 m 884 568 q 823 639 861 592 l 589 639 q 523 568 557 600 l 884 568 m 853 425 l 852 506 l 540 506 l 540 425 l 853 425 m 852 278 l 852 359 l 540 359 l 540 278 l 852 278 m 1038 -5 q 1001 47 1038 47 q 963 -4 963 47 q 1001 -55 963 -55 q 1038 -5 1038 -55 m 607 -5 q 566 47 607 47 q 539 28 551 47 q 528 -5 528 10 q 566 -59 528 -59 q 596 -42 586 -59 q 607 -5 607 -25 "},"N":{"x_min":271,"x_max":1122.453125,"ha":1389,"o":"m 1122 739 l 936 739 q 887 598 894 619 q 821 466 857 520 l 1087 304 l 1029 218 q 903 311 979 261 q 768 393 834 351 q 557 269 677 312 q 318 211 482 241 q 294 304 305 254 q 497 340 429 322 q 683 430 603 370 q 599 475 659 448 q 510 504 535 502 q 467 444 481 468 l 389 485 q 523 739 469 608 l 271 739 l 271 828 l 552 828 q 632 1035 611 945 q 733 1005 666 1028 q 683 922 705 982 q 650 828 666 875 l 1122 828 l 1122 739 m 885 -74 l 866 -74 l 866 115 l 885 115 l 885 -74 m 738 89 l 719 89 l 719 115 l 738 115 l 738 89 m 848 59 q 845 50 848 57 q 834 43 841 43 q 830 43 830 43 q 825 43 829 43 q 797 -5 801 43 q 797 -74 797 -3 l 778 -74 l 778 64 q 800 47 787 60 q 815 64 819 64 q 832 61 821 64 q 848 59 843 59 m 738 -74 l 719 -74 l 719 64 l 738 64 l 738 -74 m 682 -45 q 603 -79 654 -79 q 535 -51 561 -79 q 509 18 509 -24 q 608 115 509 115 q 677 59 662 115 q 655 55 665 56 q 599 96 642 96 q 533 18 533 96 q 602 -55 533 -55 q 659 -33 634 -55 l 659 -6 q 647 -1 654 -2 q 628 0 639 0 q 611 0 616 0 l 605 0 l 605 19 l 682 19 l 682 -45 m 840 739 l 615 739 l 540 572 q 740 500 646 541 q 840 739 812 609 "},"2":{"x_min":278,"x_max":1110.015625,"ha":1389,"o":"m 1015 838 l 382 838 l 382 920 l 1015 920 l 1015 838 m 1110 310 l 278 310 l 278 392 l 1110 392 l 1110 310 m 936 -5 q 875 -79 936 -79 q 825 -54 843 -79 q 810 -8 810 -33 q 875 64 810 64 q 936 -5 936 64 m 797 64 q 757 -75 783 16 l 734 -75 q 708 23 725 -41 q 678 -75 694 9 l 651 -75 l 615 64 l 634 64 q 664 -42 643 28 q 695 64 685 19 l 718 64 q 745 -43 724 33 q 778 64 756 -6 l 797 64 m 604 92 l 541 92 l 541 -75 l 517 -75 l 517 92 q 457 92 487 94 l 457 114 l 604 114 l 604 92 m 917 -5 q 907 26 917 10 q 875 47 896 47 q 833 -5 833 47 q 875 -60 833 -60 q 917 -5 917 -60 "},"j":{"x_min":179.28125,"x_max":1218.15625,"ha":1389,"o":"m 1099 750 l 1024 751 l 1024 861 l 382 861 l 382 743 l 303 743 l 303 936 l 652 936 l 652 1043 l 752 1039 q 742 1012 742 1012 l 742 937 l 1099 937 l 1099 750 m 959 357 q 898 292 940 334 q 786 389 861 325 q 847 459 797 409 q 906 413 876 435 q 959 357 943 384 m 1103 212 l 299 212 l 299 285 l 654 284 l 654 467 l 410 467 l 410 539 l 654 539 l 654 676 l 405 676 l 405 750 l 991 749 l 991 679 l 735 679 l 735 541 l 996 540 l 996 468 l 735 468 l 735 287 l 1103 288 l 1103 212 m 1218 -11 l 1112 -15 q 1111 -22 1111 -18 q 1157 -60 1111 -60 q 1191 -32 1182 -60 l 1213 -32 q 1193 -64 1213 -48 q 1157 -79 1173 -79 q 1107 -58 1126 -79 q 1087 -8 1087 -37 q 1152 64 1087 64 q 1218 -11 1213 64 m 1083 58 q 1078 48 1082 56 q 1069 40 1075 40 q 1064 41 1065 40 q 1059 43 1064 43 q 1030 -6 1035 43 q 1030 -75 1030 -5 l 1012 -75 l 1012 62 q 1034 47 1022 59 q 1048 64 1054 64 q 1066 61 1055 64 q 1083 58 1078 58 m 973 -75 l 952 -75 l 952 -68 q 949 -59 952 -62 q 907 -79 930 -79 q 881 -69 898 -79 q 865 -49 865 -58 l 865 62 l 884 62 q 883 40 884 55 q 881 16 881 25 q 913 -60 881 -60 q 954 -1 954 -60 q 952 25 954 8 q 951 53 951 43 q 952 62 951 60 l 973 62 l 973 -75 m 837 -36 q 819 -67 837 -56 q 779 -79 800 -79 q 744 -67 762 -79 q 727 -39 727 -54 q 727 -32 727 -39 l 744 -32 q 781 -60 756 -60 q 813 -46 798 -60 l 813 -30 q 761 -9 787 -19 q 726 26 726 4 q 777 64 726 64 l 791 64 q 829 43 804 64 l 829 23 l 809 23 q 777 46 798 46 q 749 33 763 46 l 749 21 q 807 0 755 17 q 837 -36 837 -12 m 701 -75 l 679 -75 q 672 -60 679 -67 q 624 -79 647 -79 q 579 -40 579 -79 q 626 1 579 -4 q 674 21 674 8 q 640 47 674 47 q 606 20 612 47 q 594 22 601 20 q 583 25 587 23 q 643 64 593 64 q 699 5 699 64 q 697 -16 699 -1 q 697 -39 697 -31 q 701 -75 697 -61 m 558 -11 l 454 -15 q 452 -22 452 -18 q 497 -60 452 -60 q 531 -32 522 -60 l 554 -32 q 535 -64 555 -49 q 497 -79 515 -79 q 447 -58 468 -79 q 427 -8 427 -37 q 494 64 427 64 q 558 -11 555 64 m 420 58 q 415 48 419 57 q 406 40 412 40 q 402 41 402 40 q 397 42 401 42 q 368 -6 372 42 q 368 -75 368 -5 l 349 -75 l 349 62 q 370 47 359 59 q 386 64 390 64 q 404 61 393 64 q 420 58 415 58 m 325 91 l 264 91 l 264 -75 l 239 -75 l 239 90 q 179 90 209 92 l 179 113 l 325 113 l 325 91 m 1194 8 q 1154 46 1180 46 q 1126 34 1134 46 q 1111 9 1118 22 l 1194 8 m 673 -35 l 673 -8 q 637 -14 655 -11 q 602 -28 613 -18 l 602 -47 q 633 -60 618 -60 q 673 -35 673 -60 m 534 8 q 495 46 522 46 q 468 34 476 46 q 452 8 459 21 l 534 8 "},"Z":{"x_min":250.265625,"x_max":1114,"ha":1389,"o":"m 1114 393 l 1036 393 l 1036 420 l 929 420 l 929 167 l 849 167 l 849 420 l 744 420 l 741 385 l 665 385 l 665 891 l 848 891 l 848 1038 l 940 1038 l 928 1020 l 928 894 l 1114 894 l 1114 393 m 650 838 q 572 741 623 820 q 500 629 536 685 q 639 565 547 609 l 601 480 q 491 551 542 534 l 491 166 l 410 166 l 410 532 q 283 429 357 468 q 250 502 276 451 q 412 638 333 552 q 528 815 498 733 l 278 815 l 278 887 l 413 887 l 413 1063 l 496 1063 l 488 1037 l 488 895 q 533 888 518 888 q 573 907 560 888 q 615 875 594 892 q 650 838 641 854 m 928 -75 l 909 -75 l 909 -68 q 907 -59 909 -62 q 869 -79 891 -79 q 826 -56 843 -79 q 810 -5 810 -33 q 876 64 810 64 q 905 47 894 64 q 908 74 908 59 q 905 114 908 93 l 928 114 l 928 -75 m 789 -5 q 727 -79 789 -79 q 680 -58 699 -79 q 662 -8 662 -37 q 727 64 662 64 q 789 -5 789 64 m 639 -45 q 560 -79 611 -79 q 490 -51 517 -79 q 464 18 464 -24 q 564 115 464 115 q 635 59 618 115 q 611 55 621 56 q 556 95 597 95 q 488 18 488 95 q 557 -55 488 -55 q 615 -33 590 -55 l 615 -5 q 602 0 610 -1 q 583 1 594 1 q 568 0 571 0 l 560 0 l 560 19 l 639 19 l 639 -45 m 1035 694 l 1035 821 l 929 821 l 929 694 l 1035 694 m 848 694 l 848 821 l 743 821 l 743 694 l 848 694 m 1035 496 l 1035 622 l 929 622 l 929 496 l 1035 496 m 848 496 l 848 622 l 743 622 l 743 496 l 848 496 m 908 -5 q 870 47 908 47 q 833 -5 833 47 q 872 -59 833 -59 q 908 -5 908 -59 m 769 -5 q 757 29 769 12 q 727 47 745 47 q 686 -5 686 47 q 727 -59 686 -59 q 769 -5 769 -59 "},"1":{"x_min":283,"x_max":1099.734375,"ha":1389,"o":"m 1099 596 l 283 596 l 283 678 l 1099 678 l 1099 596 m 941 -11 l 835 -15 q 834 -22 834 -18 q 879 -60 834 -60 q 913 -31 904 -60 l 936 -31 q 915 -63 936 -48 q 879 -79 895 -79 q 829 -58 848 -79 q 810 -8 810 -37 q 875 64 810 64 q 941 -11 937 64 m 786 -74 l 763 -74 q 762 -64 762 -71 q 762 -39 762 -56 q 762 -14 762 -23 q 731 47 762 47 q 693 -31 693 47 q 693 -53 693 -36 q 693 -74 694 -65 l 676 -74 l 676 64 l 693 64 l 693 58 q 695 43 693 50 q 732 64 711 64 q 786 26 786 64 l 786 -74 m 644 19 q 617 -49 644 -20 q 551 -79 591 -79 q 486 -49 512 -79 q 461 19 461 -19 q 552 115 461 115 q 617 86 591 115 q 644 19 644 58 m 917 8 q 877 47 903 47 q 850 34 859 47 q 834 8 842 21 l 917 8 m 621 18 q 600 72 621 48 q 551 96 580 96 q 503 72 521 96 q 485 18 485 48 q 553 -55 485 -55 q 601 -32 582 -55 q 621 18 621 -10 "},"u":{"x_min":250,"x_max":1141.75,"ha":1389,"o":"m 1141 710 l 776 710 q 650 620 694 650 q 979 667 777 625 q 1030 568 1007 623 q 986 579 986 579 l 602 555 q 586 491 595 534 l 1027 491 q 990 301 1008 396 q 887 167 959 167 q 808 175 858 167 q 730 187 769 182 l 730 186 q 731 190 731 187 l 731 209 l 730 273 q 857 255 830 255 q 932 419 932 255 l 571 419 q 518 297 554 378 l 444 322 l 512 523 q 283 412 437 484 q 250 483 276 432 q 468 578 347 514 q 666 710 595 647 l 258 710 l 258 788 l 607 788 l 607 875 l 350 875 l 350 953 l 607 953 l 607 1062 l 673 1064 q 705 1062 698 1065 l 688 1036 l 688 953 l 883 953 l 880 927 l 883 904 q 958 1000 908 933 q 1030 933 983 979 l 1027 933 q 865 788 1005 933 l 1141 788 l 1141 710 m 1019 -73 q 1009 -76 1013 -76 q 973 -47 991 -76 q 945 -4 950 -6 q 925 -36 925 -18 q 928 -52 925 -42 q 932 -66 932 -61 q 930 -76 932 -70 l 910 -76 l 910 113 l 932 113 l 932 11 q 984 62 937 16 l 1011 62 q 964 9 964 15 q 1019 -73 964 2 m 721 87 l 703 87 l 703 113 l 721 113 l 721 87 m 872 -76 l 850 -76 q 850 -15 850 -80 q 819 47 850 47 q 781 -3 787 47 q 780 -76 781 -39 l 762 -76 l 762 62 l 780 62 l 780 56 q 783 43 780 50 q 818 63 798 63 q 872 26 872 63 l 872 -76 m 721 -76 l 703 -76 l 703 62 l 721 62 l 721 -76 m 666 -76 l 643 -76 q 644 -15 644 -82 q 612 47 644 47 q 575 -3 580 47 q 575 -76 575 -39 l 555 -76 l 555 113 l 577 113 q 575 79 575 97 q 577 47 575 62 q 619 63 593 63 q 666 21 666 63 l 666 -76 m 526 91 l 465 91 l 465 -76 l 440 -76 l 440 90 q 381 90 412 93 l 381 113 l 526 113 l 526 91 m 857 876 l 688 876 l 688 788 l 762 788 l 857 876 "},"k":{"x_min":246.640625,"x_max":1139.109375,"ha":1389,"o":"m 1139 754 l 1097 670 q 891 769 1009 695 q 891 707 887 748 l 736 707 l 736 608 l 1063 608 l 1063 532 l 736 532 l 736 283 l 1095 283 l 1095 208 l 309 208 l 309 280 l 655 280 l 655 531 l 331 531 l 331 607 l 655 607 l 655 706 l 500 706 l 503 730 l 502 758 q 284 647 399 677 l 246 733 q 574 939 448 795 q 621 1005 577 941 q 664 1060 659 1060 l 757 1047 l 746 1025 q 1139 754 862 852 m 979 474 q 934 395 959 454 q 895 309 895 309 q 818 334 869 317 l 882 504 q 979 474 914 493 m 955 -75 l 936 -75 l 937 -68 q 934 -59 937 -62 q 897 -79 920 -79 q 855 -54 872 -79 q 838 -5 838 -30 q 902 64 838 64 q 933 47 925 64 q 936 75 936 59 q 933 113 936 93 l 955 113 l 955 -75 m 580 343 q 506 301 535 321 q 425 447 480 350 q 498 488 477 488 q 580 343 512 488 m 813 -75 l 794 -75 l 794 113 l 813 113 l 813 -75 m 758 -5 q 696 -79 758 -79 q 649 -58 668 -79 q 631 -8 631 -37 q 696 64 631 64 q 758 -5 758 64 m 612 -45 q 533 -79 583 -79 q 463 -51 490 -79 q 437 18 437 -24 q 538 115 437 115 q 608 59 591 115 q 586 55 594 56 q 529 95 570 95 q 461 17 461 95 q 530 -56 461 -56 q 588 -33 563 -56 l 588 -6 q 575 0 583 -1 q 556 0 567 0 q 541 0 544 0 l 533 0 l 533 19 l 612 19 l 612 -45 m 868 783 q 692 972 799 830 q 532 783 615 843 l 868 783 m 937 -5 q 899 47 937 47 q 862 -5 862 47 q 900 -59 862 -59 q 937 -5 937 -59 m 738 -5 q 727 30 738 14 q 696 47 716 47 q 655 -5 655 47 q 696 -59 655 -59 q 738 -5 738 -59 "},"<":{"x_min":257.859375,"x_max":1138.546875,"ha":1389,"o":"m 1138 540 l 1109 456 q 721 642 914 497 q 289 416 517 494 q 257 498 270 455 q 662 699 503 574 q 552 852 595 777 q 321 654 403 690 q 285 733 302 680 q 453 865 368 770 q 556 1047 537 960 q 645 1017 587 1038 l 613 974 l 866 972 l 894 995 q 971 934 916 980 q 878 816 941 902 q 781 699 823 738 q 1138 540 895 605 m 897 458 q 859 380 884 431 q 587 461 800 406 q 611 534 595 486 l 632 534 q 765 503 658 534 q 897 458 872 472 m 1082 58 q 1077 48 1081 56 q 1068 39 1074 39 q 1064 41 1064 39 q 1059 42 1063 42 q 1030 -5 1034 42 q 1030 -75 1030 -4 l 1011 -75 l 1011 62 q 1034 47 1021 59 q 1048 64 1053 64 q 1066 61 1055 64 q 1082 58 1077 58 m 955 261 l 919 175 q 475 290 726 245 q 497 363 477 308 q 955 261 672 359 m 982 -11 l 877 -15 q 877 -22 877 -17 q 921 -59 877 -59 q 956 -31 946 -59 l 978 -31 q 958 -63 979 -48 q 921 -79 938 -79 q 872 -58 892 -79 q 852 -8 852 -37 q 917 64 852 64 q 982 -11 978 64 m 844 -75 q 836 -77 842 -75 q 828 -79 830 -79 q 797 -62 815 -79 l 797 40 q 777 54 790 43 q 794 64 781 64 q 800 89 798 66 q 817 107 800 105 l 817 66 q 840 63 823 63 l 840 44 l 817 44 l 817 -44 q 844 -75 829 -52 m 606 87 l 587 87 l 587 113 l 606 113 l 606 87 m 754 -75 l 730 -75 q 732 -15 732 -79 q 700 47 732 47 q 662 -2 668 47 q 662 -75 662 -38 l 643 -75 l 643 63 l 662 63 l 662 57 q 665 43 661 50 q 699 64 680 64 q 754 26 754 64 l 754 -75 m 606 -75 l 587 -75 l 587 63 l 606 63 l 606 -75 m 562 113 l 515 -75 l 488 -75 q 443 87 475 -20 l 395 -75 l 369 -75 l 322 113 l 344 113 l 383 -43 q 429 113 398 9 l 455 113 q 501 -43 470 61 l 540 113 l 562 113 m 837 896 l 619 896 q 723 758 659 812 q 837 896 762 794 m 959 8 q 920 47 944 47 q 892 34 899 47 q 876 8 884 22 l 959 8 "},"t":{"x_min":262.46875,"x_max":1138.640625,"ha":1389,"o":"m 1090 933 q 1070 932 1084 926 l 945 825 l 884 875 l 1016 1004 q 1059 972 1032 997 q 1090 933 1086 947 m 1115 680 q 1057 607 1107 669 q 884 732 1000 654 l 933 797 q 1115 680 1025 752 m 1138 300 l 1117 214 l 1101 214 q 910 285 1035 214 q 740 408 792 350 l 740 175 l 655 175 l 655 385 q 294 198 500 255 q 262 280 284 226 q 626 454 506 344 l 281 454 l 281 529 l 656 529 l 656 603 l 605 603 l 603 579 l 536 579 l 536 952 l 563 952 l 631 953 q 659 1056 644 985 q 749 1037 688 1049 q 698 954 737 1022 q 860 956 714 951 l 860 587 l 794 587 l 790 603 l 737 603 l 737 529 l 1113 529 l 1113 453 l 781 453 q 1138 300 941 326 m 496 902 q 447 820 479 876 l 314 905 l 362 976 l 496 902 m 508 723 q 334 575 500 716 q 281 657 316 595 q 376 719 329 687 q 466 788 430 757 q 508 723 480 768 m 908 -75 l 884 -75 q 885 -15 885 -79 q 855 47 885 47 q 818 -2 823 47 q 816 -75 816 -38 l 799 -75 l 799 63 l 816 63 l 816 57 q 819 43 816 50 q 854 64 834 64 q 908 26 908 64 l 908 -75 m 759 -75 l 739 -75 l 739 -68 q 736 -59 739 -62 q 694 -79 716 -79 q 667 -68 683 -79 q 651 -48 651 -58 l 651 63 l 669 63 q 669 40 669 56 q 667 17 667 25 q 699 -59 667 -59 q 740 0 740 -59 q 738 26 740 8 q 737 53 737 43 q 738 63 737 60 l 759 63 l 759 -75 m 618 90 l 519 90 l 519 33 l 607 33 l 607 12 l 520 12 l 520 -75 l 496 -75 l 496 114 l 618 114 l 618 90 m 793 810 l 793 888 l 604 888 l 604 810 l 793 810 m 793 667 l 793 746 l 604 746 l 604 667 l 793 667 "},"W":{"x_min":269.078125,"x_max":1139.96875,"ha":1389,"o":"m 1139 393 q 1113 260 1138 298 q 994 212 1081 212 l 880 212 q 758 259 758 212 l 758 913 l 530 913 q 502 783 523 869 l 701 783 l 701 738 q 606 405 701 566 q 345 185 502 231 q 309 264 332 212 q 546 453 451 305 q 417 566 506 495 q 319 459 387 530 l 269 521 q 394 696 341 571 q 444 912 444 815 l 270 912 l 270 988 l 1109 988 l 1109 913 l 836 913 l 836 645 q 1022 782 948 711 q 1087 697 1045 755 q 956 632 1033 679 q 833 556 844 562 l 833 310 q 889 287 833 287 q 1017 296 1003 287 q 1055 420 1042 312 l 1139 393 m 1035 -75 l 1012 -75 q 1014 -15 1014 -81 q 982 47 1014 47 q 944 -2 950 47 q 943 -75 944 -38 l 925 -75 l 925 114 l 947 114 q 944 79 944 97 q 947 47 944 62 q 987 64 962 64 q 1035 22 1035 64 l 1035 -75 m 900 -75 q 892 -77 897 -75 q 883 -79 886 -79 q 853 -62 871 -79 l 853 40 q 833 54 846 43 q 850 64 837 64 q 856 88 854 66 q 872 107 856 105 l 872 67 q 896 63 879 63 l 896 44 l 872 44 l 872 -44 q 900 -75 885 -52 m 816 -75 l 794 -75 q 787 -59 794 -66 q 740 -79 762 -79 q 694 -40 694 -79 q 741 2 694 -4 q 789 22 789 8 q 755 47 789 47 q 720 20 726 47 q 709 22 716 20 q 698 24 701 23 q 758 64 708 64 q 814 4 814 64 q 813 -18 814 -2 q 813 -40 813 -31 q 816 -75 813 -61 m 673 -11 l 568 -15 q 568 -22 568 -17 q 612 -59 568 -59 q 647 -31 637 -59 l 669 -31 q 650 -63 670 -48 q 612 -79 630 -79 q 563 -58 583 -79 q 543 -8 543 -37 q 608 64 543 64 q 673 -11 669 64 m 523 19 q 504 -44 523 -13 q 454 -75 486 -75 l 369 -75 l 369 115 l 445 115 q 505 84 483 115 q 523 19 523 59 m 618 687 l 618 718 l 484 718 q 452 627 470 668 q 583 540 495 598 q 618 687 618 668 m 788 -34 l 788 -8 q 750 -14 770 -10 q 718 -27 729 -17 l 718 -46 q 747 -59 733 -59 q 788 -34 788 -59 m 650 8 q 611 47 634 47 q 582 34 590 47 q 568 8 574 22 l 650 8 m 500 19 q 487 65 500 40 q 458 90 475 90 l 393 90 l 393 -51 l 458 -51 q 488 -23 475 -51 q 500 19 500 0 "},"v":{"x_min":210.609375,"x_max":1183,"ha":1389,"o":"m 1147 232 q 1072 186 1128 205 q 1034 246 1049 246 q 820 223 974 246 q 613 182 661 200 q 583 264 601 208 q 698 269 586 264 q 814 284 769 273 l 814 420 l 693 420 l 691 389 l 628 389 l 628 663 l 813 663 l 812 766 q 705 761 759 763 q 608 733 633 756 q 587 835 608 736 l 597 832 q 696 871 657 832 q 749 956 721 896 q 799 1051 781 1027 q 889 1013 810 1046 q 824 930 854 984 q 774 835 799 882 l 957 850 l 900 910 q 963 959 921 926 q 1050 870 1024 899 q 1131 774 1097 819 q 1061 722 1109 754 q 1006 792 1043 747 q 884 777 925 781 l 882 740 l 884 664 l 1079 664 l 1080 421 l 882 421 l 882 295 q 916 288 916 288 q 1004 299 939 288 l 956 366 q 1006 408 971 383 q 1147 232 1054 375 m 1183 -75 l 1160 -75 q 1159 -58 1159 -68 q 1159 -37 1159 -51 q 1160 -15 1160 -22 q 1129 47 1160 47 q 1092 2 1099 47 q 1091 -65 1092 -30 l 1091 -75 l 1073 -75 l 1073 114 l 1094 114 q 1092 79 1092 97 q 1093 47 1092 62 q 1135 64 1110 64 q 1183 22 1183 64 l 1183 -75 m 1047 -74 q 1038 -76 1044 -74 q 1029 -79 1033 -79 q 1000 -62 1016 -79 l 1000 40 q 980 54 991 43 q 997 64 984 64 q 1002 80 1001 68 l 1002 84 q 1020 106 1001 105 l 1020 67 q 1044 62 1027 63 l 1044 45 l 1020 45 l 1020 -44 q 1047 -74 1032 -52 m 555 561 q 449 167 555 167 l 308 167 q 305 238 307 157 l 421 238 q 462 357 448 238 q 472 516 472 439 l 352 516 l 344 491 q 266 491 280 495 l 266 516 q 282 656 266 566 q 301 795 300 752 q 483 797 320 801 l 483 947 l 267 947 l 267 1007 l 551 1007 l 551 711 l 488 711 l 484 734 q 415 738 470 738 l 376 738 q 352 582 370 686 l 555 582 l 555 561 m 956 -94 q 934 -119 956 -108 q 897 -131 913 -131 q 842 -87 857 -131 q 872 -103 857 -95 q 909 -111 886 -111 q 936 -80 923 -111 l 933 -59 q 894 -75 910 -75 q 853 -52 869 -75 q 838 -4 838 -30 q 903 64 838 64 q 935 47 926 64 q 938 62 938 52 l 956 63 l 956 -94 m 813 -75 l 790 -75 q 789 -58 789 -68 q 790 -36 789 -51 q 792 -15 792 -22 q 760 47 792 47 q 723 2 729 47 q 722 -64 722 -5 q 721 -75 722 -71 l 702 -75 l 702 62 l 721 62 l 721 56 q 723 42 721 49 q 760 64 739 64 q 813 26 813 64 l 813 -75 m 673 -10 l 568 -15 l 568 -22 q 612 -59 568 -59 q 647 -31 637 -59 l 669 -31 q 650 -63 670 -48 q 612 -79 630 -79 q 563 -58 583 -79 q 543 -8 543 -37 q 608 64 543 64 q 673 -10 669 64 m 539 58 q 535 48 539 56 q 525 40 532 40 q 521 41 522 40 q 515 43 519 43 q 488 -7 492 43 q 488 -75 488 -3 l 469 -74 l 469 62 q 490 47 477 60 q 506 64 508 64 q 522 61 511 64 q 539 58 533 58 m 444 -74 q 435 -76 440 -74 q 426 -79 429 -79 q 397 -62 414 -79 l 397 40 q 376 54 389 43 q 394 64 382 64 q 399 80 399 68 l 399 84 q 417 106 399 105 l 417 67 q 440 62 423 63 l 440 45 l 416 45 l 416 -44 q 444 -74 429 -52 m 362 -21 q 338 -62 362 -46 q 290 -79 315 -79 q 235 -60 259 -79 q 210 -12 212 -42 l 233 -12 q 283 -55 243 -55 q 337 -23 337 -55 q 277 16 337 3 q 218 63 218 29 q 286 115 218 115 q 357 60 349 115 l 335 60 q 286 96 321 96 q 241 65 241 96 q 301 31 241 42 q 362 -21 362 20 m 1012 485 l 1012 603 l 882 603 l 882 485 l 1012 485 m 812 485 l 813 603 l 691 603 l 691 485 l 812 485 m 936 -5 q 899 47 936 47 q 861 -4 861 47 q 899 -55 861 -55 q 936 -5 936 -55 m 650 8 q 611 47 635 47 q 583 34 592 47 q 568 8 575 22 l 650 8 "},">":{"x_min":211.125,"x_max":1201.390625,"ha":1389,"o":"m 1126 257 q 1110 183 1125 247 l 1061 183 q 893 207 1003 183 q 722 258 783 231 q 306 179 498 179 q 285 249 292 211 l 310 248 q 646 299 510 246 l 533 403 q 333 313 383 313 l 294 383 q 442 430 390 402 q 559 533 512 465 q 405 532 544 536 l 405 884 l 608 884 q 630 942 612 889 l 281 942 l 281 1003 l 1117 1003 l 1117 945 l 720 945 q 696 887 716 937 l 996 887 l 996 536 l 645 536 l 615 494 l 890 492 l 918 508 q 976 450 961 473 q 801 304 880 361 q 1126 257 903 263 m 1201 58 q 1197 48 1201 56 q 1188 40 1194 40 q 1182 41 1183 40 q 1177 43 1181 43 q 1150 -5 1154 43 q 1150 -75 1150 -4 l 1131 -75 l 1131 63 q 1152 47 1140 60 q 1168 64 1172 64 q 1185 61 1173 64 q 1201 58 1197 58 m 1102 -11 l 997 -15 q 996 -22 996 -17 q 1041 -59 996 -59 q 1076 -31 1066 -59 l 1098 -31 q 1079 -63 1100 -48 q 1041 -79 1058 -79 q 991 -58 1011 -79 q 972 -8 972 -37 q 1037 64 972 64 q 1102 -11 1098 64 m 945 -75 l 926 -75 q 926 -19 926 -79 q 899 47 926 47 q 861 -23 861 47 q 863 -50 861 -33 q 864 -75 864 -66 l 842 -75 l 842 28 q 817 47 842 47 q 782 -1 787 47 q 781 -72 781 -4 l 781 -75 l 763 -75 l 763 63 l 781 63 l 781 57 q 783 47 781 51 q 821 64 800 64 q 860 43 849 64 q 872 53 861 43 q 904 64 882 64 q 945 37 945 64 l 945 -75 m 726 -75 l 707 -75 q 707 -20 707 -77 q 680 47 707 47 q 642 -23 642 47 q 644 -50 642 -33 q 645 -75 645 -66 l 623 -75 l 623 28 q 598 47 623 47 q 562 -1 568 47 q 562 -72 562 -4 l 562 -75 l 544 -75 l 544 63 l 562 63 l 562 57 q 564 47 562 51 q 595 64 582 64 q 641 42 630 64 q 652 53 641 42 q 685 64 663 64 q 726 38 726 64 l 726 -75 m 506 -75 l 485 -75 l 485 -68 q 482 -59 485 -62 q 440 -79 462 -79 q 413 -68 430 -79 q 397 -48 397 -57 l 397 62 l 415 62 q 413 40 414 56 q 413 17 413 25 q 445 -59 413 -59 q 486 0 486 -59 q 484 25 486 7 q 483 51 483 43 q 484 63 483 60 l 506 63 l 506 -75 m 361 -21 q 338 -62 361 -46 q 290 -79 315 -79 q 236 -60 259 -79 q 211 -12 212 -41 l 233 -12 q 283 -55 243 -55 q 337 -23 337 -55 q 277 16 337 4 q 218 63 218 29 q 286 115 218 115 q 356 60 348 116 l 334 60 q 313 84 329 72 q 286 96 298 96 q 241 65 241 96 q 301 31 241 42 q 361 -21 361 20 m 920 790 l 920 835 l 480 835 l 481 790 l 920 790 m 919 689 l 919 739 l 482 739 l 482 689 l 919 689 m 919 583 l 919 640 l 482 640 l 481 584 l 919 583 m 839 426 l 602 426 q 723 336 695 336 q 785 374 739 336 q 839 426 827 407 m 1078 8 q 1038 47 1063 47 q 1010 34 1019 47 q 995 8 1002 22 l 1078 8 "},"B":{"x_min":262.421875,"x_max":1130.34375,"ha":1389,"o":"m 1106 878 l 931 878 q 978 790 976 821 q 890 773 952 783 q 842 881 876 809 l 787 881 q 708 742 763 832 q 672 774 705 744 q 650 797 650 792 q 700 901 650 792 q 752 1058 750 1010 q 848 1038 801 1052 q 812 946 834 1008 l 1106 946 l 1106 878 m 681 878 l 555 877 q 594 791 595 807 l 594 773 q 508 753 570 770 q 461 881 497 817 l 411 881 q 319 746 379 803 q 262 799 308 753 q 393 1056 366 929 l 409 1056 q 486 1037 427 1056 q 458 997 469 1024 q 440 946 448 970 l 681 946 l 681 878 m 1130 264 q 1098 178 1119 234 l 1077 178 q 926 228 1033 178 q 813 287 840 267 q 708 412 756 326 q 547 241 699 332 q 326 157 406 157 l 309 157 q 277 244 288 206 q 481 300 429 277 q 647 469 601 355 l 294 469 l 294 544 l 655 544 l 653 637 l 369 625 q 346 696 365 637 q 473 702 380 695 q 951 749 762 720 q 1014 663 1002 688 l 735 642 l 735 544 l 1102 544 l 1102 472 l 766 469 q 930 320 806 371 q 1130 264 976 300 m 1051 -75 l 1027 -75 q 1028 -5 1028 -40 q 996 47 1026 47 q 958 -30 958 47 q 959 -75 958 -86 l 940 -75 l 940 113 l 962 113 q 962 47 956 80 q 1003 64 978 64 q 1051 22 1051 64 l 1051 -75 m 900 -94 q 872 -122 900 -110 q 841 -131 851 -131 q 786 -87 802 -131 q 818 -106 801 -94 q 843 -111 825 -111 q 862 -108 858 -111 q 880 -80 866 -106 l 878 -59 q 839 -75 855 -75 q 798 -52 814 -75 q 782 -4 782 -30 q 841 64 782 64 q 879 47 868 64 q 882 63 882 50 l 900 63 l 900 -94 m 751 -75 l 731 -75 q 727 -59 731 -62 q 685 -79 709 -79 q 658 -68 674 -79 q 643 -48 643 -58 l 643 63 l 663 63 q 660 -2 663 -24 q 691 -59 664 -59 q 732 -1 732 -59 q 730 28 732 9 q 729 53 729 47 q 730 63 729 60 l 751 63 l 751 -75 m 610 -75 l 587 -75 q 580 -59 587 -66 q 533 -79 555 -79 q 487 -40 487 -79 q 502 -8 487 -17 q 556 4 518 0 q 583 22 583 7 q 550 47 583 47 q 515 20 520 47 q 499 23 505 20 q 493 25 493 25 q 551 64 500 64 q 607 4 607 64 q 607 -18 607 -2 q 606 -40 606 -31 q 610 -75 606 -61 m 468 -75 l 349 -75 l 349 113 l 372 113 l 372 -50 l 468 -50 l 468 -75 m 880 -5 q 843 47 880 47 q 805 -4 805 47 q 843 -55 805 -55 q 880 -5 880 -55 m 583 -34 l 583 -8 q 537 -16 559 -12 q 512 -27 522 -19 l 512 -47 q 541 -59 526 -59 q 568 -52 552 -59 q 583 -34 583 -44 "},"s":{"x_min":277.6875,"x_max":1127.09375,"ha":1389,"o":"m 1127 295 q 1082 198 1115 266 q 853 368 970 234 q 703 615 747 491 q 564 368 683 502 q 334 198 444 234 q 277 280 317 223 q 595 573 522 376 q 643 1011 643 698 l 715 1012 q 749 1011 743 1013 l 734 984 l 734 802 q 859 494 734 651 q 1127 295 979 341 m 1103 -75 l 1079 -75 q 1079 -65 1079 -72 q 1080 -40 1079 -56 q 1080 -15 1080 -23 q 1050 47 1080 47 q 1010 -31 1010 47 q 1011 -54 1010 -37 q 1011 -75 1011 -66 l 993 -75 l 993 63 l 1011 63 l 1011 57 q 1013 43 1011 50 q 1048 64 1029 64 q 1103 26 1103 64 l 1103 -75 m 955 -5 q 894 -79 955 -79 q 847 -58 866 -79 q 829 -8 829 -37 q 894 64 829 64 q 955 -5 955 64 m 814 -35 q 795 -67 814 -55 q 756 -79 777 -79 q 721 -66 739 -79 q 703 -38 703 -54 q 703 -31 703 -38 l 721 -31 q 759 -59 734 -59 q 791 -45 775 -59 l 791 -30 q 736 -9 763 -19 q 703 26 703 4 q 754 64 703 64 l 768 64 q 806 43 781 64 l 806 23 l 786 23 q 754 47 775 47 q 727 33 741 47 l 727 22 q 784 0 732 18 q 814 -35 814 -11 m 694 58 q 689 48 693 56 q 680 40 686 40 q 675 41 676 40 q 671 42 675 42 q 641 -5 646 42 q 641 -75 641 -4 l 624 -74 l 624 62 q 646 47 633 59 q 659 64 665 64 q 677 61 666 64 q 694 58 689 58 m 594 -10 l 489 -15 q 489 -22 489 -17 q 533 -59 489 -59 q 568 -31 558 -59 l 590 -31 q 570 -63 591 -48 q 533 -79 550 -79 q 484 -58 504 -79 q 464 -8 464 -37 q 529 64 464 64 q 594 -10 590 64 m 440 56 q 401 5 440 15 q 329 0 388 1 q 326 -35 326 -12 q 327 -75 326 -58 l 301 -75 l 301 115 l 386 115 q 440 56 440 115 m 936 -5 q 924 30 936 12 q 894 47 912 47 q 853 -5 853 47 q 894 -59 853 -59 q 936 -5 936 -59 m 570 8 q 532 47 557 47 q 504 34 512 47 q 489 8 495 22 l 570 8 m 416 59 q 394 90 416 90 l 326 90 l 326 23 l 390 23 q 416 59 416 23 "},"?":{"x_min":241.59375,"x_max":1154.6875,"ha":1389,"o":"m 1134 858 q 1090 714 1118 851 q 1047 578 1062 578 q 1014 591 1044 578 q 976 608 979 606 q 1044 884 1016 703 q 1134 858 1075 877 m 1154 272 l 1101 185 q 886 487 953 283 q 784 301 855 388 q 625 170 714 215 q 568 244 591 208 q 791 469 729 312 q 839 787 839 586 q 836 917 839 831 q 833 1043 833 1002 l 924 1042 l 913 1024 l 913 667 q 990 444 913 566 q 1154 272 1064 326 m 778 853 q 750 724 766 849 q 733 578 741 652 q 647 595 704 585 q 671 863 671 691 l 764 863 l 778 853 m 1139 -75 l 1115 -75 q 1115 -64 1115 -72 q 1115 -40 1115 -56 q 1116 -15 1116 -23 q 1084 47 1116 47 q 1044 -31 1044 47 q 1046 -52 1044 -37 q 1047 -75 1047 -66 l 1028 -75 l 1028 63 l 1047 63 l 1047 57 q 1050 43 1046 50 q 1084 64 1065 64 q 1139 26 1139 64 l 1139 -75 m 642 554 l 592 472 l 497 567 l 497 166 l 418 166 l 418 559 q 299 380 373 474 l 241 438 q 416 735 374 595 q 270 735 401 739 l 270 813 l 419 813 l 419 924 q 302 912 380 918 q 273 974 292 933 q 430 1014 307 978 q 552 1051 548 1051 q 611 966 571 1051 l 587 967 q 496 937 543 970 l 496 816 l 630 816 l 630 739 l 496 736 l 496 668 q 642 554 548 634 m 988 -75 l 968 -75 q 970 -20 970 -77 q 942 47 970 47 q 905 -23 905 47 q 907 -50 905 -33 q 909 -75 909 -66 l 885 -75 l 885 29 q 861 47 885 47 q 825 -1 830 47 q 825 -72 825 -3 l 825 -75 l 806 -75 l 806 63 l 825 63 l 825 57 q 828 47 824 51 q 857 64 846 64 q 903 43 892 64 q 915 53 904 43 q 949 64 926 64 q 988 37 988 64 l 988 -75 m 767 -75 l 746 -75 l 747 -68 q 744 -59 747 -62 q 703 -79 725 -79 q 675 -68 692 -79 q 659 -48 659 -58 l 659 63 l 678 63 q 676 40 678 56 q 675 17 675 25 q 708 -59 675 -59 q 748 0 748 -59 q 747 25 748 7 q 746 51 746 43 q 747 63 746 60 l 767 63 l 767 -75 m 638 -75 q 630 -77 636 -75 q 620 -79 624 -79 q 592 -62 608 -79 l 592 40 q 571 54 583 43 q 589 64 576 64 q 593 89 592 66 q 611 107 594 105 l 611 66 q 634 63 617 63 l 634 44 l 611 44 l 611 -44 q 638 -75 623 -52 m 548 -75 l 527 -75 l 527 -68 q 524 -59 528 -62 q 482 -79 506 -79 q 456 -68 473 -79 q 440 -48 440 -58 l 440 63 l 459 63 q 458 40 459 56 q 456 17 456 25 q 489 -59 456 -59 q 530 0 530 -59 q 528 26 530 8 q 527 53 527 43 q 528 63 527 60 l 548 63 l 548 -75 m 416 -75 l 390 -75 q 362 -15 381 -54 l 291 -15 q 269 -75 273 -48 l 241 -75 l 313 115 l 340 115 l 416 -75 m 361 4 q 327 91 348 33 q 298 4 316 62 l 361 4 "},"H":{"x_min":290,"x_max":1117.84375,"ha":1389,"o":"m 1103 761 l 1028 761 l 1028 889 l 366 889 l 366 761 l 290 761 l 290 964 l 646 964 q 646 1047 648 1004 l 748 1043 l 738 1024 l 738 964 l 1103 964 l 1103 761 m 1117 315 q 1065 230 1097 276 q 830 455 926 327 q 829 380 826 441 q 829 302 829 297 q 808 224 829 263 q 747 179 783 179 l 608 179 q 595 260 601 203 q 635 260 610 260 q 670 260 660 260 q 731 276 715 260 q 754 361 754 298 q 747 448 754 408 q 342 206 576 302 l 305 284 q 726 526 544 363 l 699 566 q 366 384 531 438 q 333 455 358 405 q 653 613 510 502 l 620 647 q 321 527 481 559 l 296 601 q 653 745 527 644 l 409 745 l 409 821 l 987 821 l 987 745 l 756 745 q 677 675 735 725 q 780 583 715 648 q 881 648 873 641 q 973 726 937 686 q 1055 655 1049 684 q 944 602 1008 637 q 837 544 890 573 q 1117 315 909 433 m 1042 -11 l 937 -15 q 937 -22 937 -18 q 981 -60 937 -60 q 1015 -31 1006 -60 l 1038 -31 q 1018 -63 1039 -48 q 981 -79 997 -79 q 932 -58 952 -79 q 912 -8 912 -37 q 977 64 912 64 q 1042 -11 1038 64 m 885 -75 l 866 -75 q 866 -19 866 -79 q 839 47 866 47 q 801 -23 801 47 q 801 -50 801 -33 q 801 -75 801 -66 l 782 -75 l 782 28 q 758 47 782 47 q 721 -1 727 47 q 720 -72 720 -4 l 720 -75 l 702 -75 l 702 64 l 720 64 l 720 57 q 723 47 720 51 q 761 64 740 64 q 800 43 788 64 q 812 53 801 43 q 844 64 823 64 q 885 37 885 64 l 885 -75 m 670 -5 q 608 -79 670 -79 q 561 -58 580 -79 q 542 -8 542 -37 q 608 64 542 64 q 670 -5 670 64 m 513 -75 l 488 -75 q 491 -29 491 -52 q 488 16 491 -6 l 394 16 l 394 -75 l 366 -75 l 366 113 l 391 113 l 391 34 l 484 34 q 492 68 492 44 q 491 102 492 84 l 492 113 l 513 113 l 513 -75 m 1019 8 q 980 47 1004 47 q 952 34 960 47 q 937 8 945 21 l 1019 8 m 649 -5 q 637 29 649 12 q 608 47 626 47 q 566 -5 566 47 q 608 -60 566 -60 q 649 -5 649 -60 "},"c":{"x_min":241.65625,"x_max":1157.953125,"ha":1389,"o":"m 1157 367 q 1141 263 1156 309 q 1078 198 1119 198 q 972 324 1019 198 q 932 506 932 431 l 932 929 l 428 929 q 433 780 428 881 q 438 626 438 678 q 300 185 438 328 q 241 255 269 215 q 318 364 287 298 q 350 490 350 430 l 350 998 l 1007 998 q 1004 920 1007 1007 q 1001 755 1001 833 q 1060 333 1001 384 q 1087 420 1082 341 q 1157 367 1110 405 m 963 268 q 894 218 959 254 l 851 274 q 648 247 804 272 q 471 207 481 219 q 445 254 458 208 q 434 312 432 296 q 474 304 464 304 q 554 308 503 304 q 636 312 613 312 q 638 355 638 319 l 635 468 l 557 468 q 557 405 553 444 l 489 405 l 489 704 l 639 704 l 639 774 q 480 774 618 779 q 461 845 475 797 q 828 872 637 845 q 881 793 881 819 l 881 787 q 856 793 856 793 q 705 777 806 793 l 705 704 l 860 704 l 860 468 l 707 468 l 707 324 q 744 318 723 318 q 819 328 772 318 q 797 365 813 344 q 769 398 770 397 q 831 444 788 419 q 963 268 900 374 m 978 -75 l 960 -75 l 960 -68 q 958 -59 960 -62 q 920 -79 944 -79 q 878 -54 895 -79 q 861 -5 861 -30 q 926 64 861 64 q 958 47 948 63 q 959 75 959 59 q 956 114 959 93 l 978 114 l 978 -75 m 686 87 l 667 87 l 667 114 l 686 114 l 686 87 m 836 -74 l 814 -74 q 816 -15 816 -78 q 783 47 816 47 q 746 -2 751 47 q 746 -74 746 -39 l 726 -75 l 726 62 l 746 62 l 744 57 q 748 43 744 50 q 783 64 764 64 q 836 26 836 64 l 836 -74 m 686 -74 l 667 -75 l 667 62 l 686 62 l 686 -74 m 642 114 l 594 -74 l 568 -74 q 522 88 554 -20 l 475 -74 l 448 -74 l 401 114 l 423 114 l 462 -42 q 508 113 477 9 l 534 113 q 580 -43 550 61 l 620 114 l 642 114 m 793 528 l 793 641 l 707 641 l 707 528 l 793 528 m 637 528 l 637 641 l 556 641 l 556 528 l 637 528 m 960 -5 q 922 47 960 47 q 885 -5 885 47 q 925 -59 885 -59 q 960 -5 960 -59 "},"I":{"x_min":275.234375,"x_max":1136.203125,"ha":1389,"o":"m 1131 257 l 1106 175 l 1086 175 q 883 250 1018 175 q 708 384 749 326 q 543 233 682 301 q 318 171 416 171 l 290 248 q 479 293 465 287 q 630 414 572 326 l 298 414 l 298 490 l 647 490 q 658 565 660 519 l 275 565 l 275 644 l 662 644 l 662 712 l 378 712 l 378 791 l 662 790 l 662 856 l 319 856 l 319 935 l 544 935 q 491 1010 526 960 q 569 1051 514 1028 q 641 932 609 996 l 758 932 l 830 1067 q 912 1035 855 1058 q 840 935 887 1000 l 1085 935 l 1085 860 l 742 860 l 742 791 l 1026 790 l 1026 712 l 742 712 l 742 644 l 1130 644 l 1130 568 l 744 568 q 733 493 732 536 l 1103 493 l 1103 414 l 782 414 q 1131 257 897 305 m 1020 -114 l 1020 -122 q 1023 -128 1022 -123 q 1025 -135 1025 -133 q 1028 -135 1026 -135 q 1033 -136 1030 -136 l 1038 -136 l 1048 -136 q 1055 -135 1052 -136 q 1063 -127 1058 -133 q 1072 -118 1069 -121 q 1078 -108 1073 -116 q 1084 -96 1083 -100 q 1090 -81 1086 -93 q 1097 -62 1094 -69 q 1107 -32 1100 -51 q 1120 5 1113 -12 q 1136 48 1127 26 l 1136 57 l 1111 57 q 1105 38 1108 47 q 1100 25 1102 32 q 1097 13 1098 18 q 1093 2 1095 11 q 1087 -15 1090 -5 q 1081 -33 1084 -24 q 1076 -44 1077 -41 q 1070 -26 1075 -38 q 1060 0 1065 -13 q 1050 26 1055 13 q 1043 44 1044 38 q 1038 52 1043 48 q 1036 57 1038 57 q 1024 57 1033 57 q 1012 58 1015 58 l 1012 52 q 1020 30 1015 45 q 1032 -1 1026 15 q 1043 -33 1038 -19 q 1051 -54 1048 -48 q 1057 -66 1054 -56 q 1059 -79 1059 -76 l 1059 -80 l 1059 -83 q 1058 -88 1059 -84 q 1055 -95 1057 -93 q 1047 -108 1052 -104 q 1038 -112 1043 -112 q 1030 -113 1037 -112 q 1020 -114 1023 -114 m 498 -12 l 498 -36 q 500 -41 498 -37 q 502 -48 502 -46 q 506 -54 506 -48 q 512 -61 511 -58 l 515 -66 q 520 -71 516 -68 q 527 -75 525 -73 q 537 -80 530 -79 q 544 -83 541 -82 q 554 -84 545 -83 q 565 -85 562 -85 l 577 -85 q 587 -83 581 -85 q 595 -80 590 -83 q 604 -75 601 -76 q 615 -64 607 -72 q 625 -54 623 -57 q 627 -50 626 -54 q 629 -44 629 -47 l 629 -41 l 629 -40 q 618 -37 626 -39 q 608 -36 611 -36 l 607 -36 l 604 -36 q 600 -42 604 -37 q 595 -48 597 -47 q 589 -53 594 -48 q 583 -58 584 -57 q 578 -61 583 -59 q 570 -62 573 -62 l 566 -62 l 563 -62 q 559 -61 562 -62 q 555 -59 556 -59 q 552 -58 554 -59 q 544 -54 548 -54 q 538 -49 543 -53 q 531 -44 534 -46 q 527 -36 531 -40 q 528 -28 527 -33 q 529 -21 529 -23 l 630 -21 q 630 -4 630 -18 q 629 13 630 9 q 627 17 629 15 q 625 23 626 20 q 623 29 625 26 q 620 31 622 31 q 610 42 618 34 q 600 52 602 49 l 591 56 q 584 59 588 58 q 579 61 580 61 l 563 61 l 548 61 l 536 57 q 527 52 531 52 l 511 36 q 508 28 511 34 q 502 19 505 22 q 500 15 501 18 q 498 11 498 13 l 498 9 l 498 -12 m 647 -45 l 647 -49 q 650 -56 649 -52 q 651 -62 651 -60 q 660 -69 654 -63 q 668 -78 665 -76 q 672 -81 668 -77 q 676 -83 674 -83 l 697 -83 l 715 -83 q 721 -81 717 -83 q 728 -79 725 -80 q 737 -74 731 -77 q 744 -70 743 -70 l 749 -74 q 753 -79 750 -77 q 758 -79 754 -79 q 765 -80 762 -80 q 770 -79 767 -80 q 775 -79 774 -79 l 769 -62 l 769 31 q 768 37 769 33 q 765 44 767 41 q 762 48 765 45 q 757 52 760 51 q 754 55 757 54 q 749 56 751 56 q 740 59 746 58 q 732 61 735 61 l 712 61 l 697 61 q 685 58 694 61 q 672 52 675 55 l 660 40 q 656 32 658 38 q 651 23 653 26 l 651 12 q 664 14 654 12 q 676 18 674 16 q 683 25 679 19 q 689 31 687 30 q 690 33 689 33 q 693 34 692 33 q 697 36 694 36 l 711 36 l 728 36 q 736 31 732 36 q 740 27 740 27 q 744 18 744 23 l 744 13 l 744 9 q 714 2 729 5 q 685 -2 699 0 q 679 -4 683 -2 q 672 -6 675 -5 l 667 -9 q 660 -15 664 -10 q 658 -17 660 -16 q 656 -19 656 -19 q 651 -27 656 -23 q 649 -34 651 -30 q 647 -40 647 -38 l 647 -45 m 804 57 l 804 -49 q 806 -55 804 -51 q 808 -62 808 -60 l 824 -78 q 830 -81 824 -78 q 834 -83 833 -83 l 853 -83 l 867 -83 q 880 -77 870 -81 q 892 -70 890 -73 l 896 -79 l 915 -79 l 915 57 l 891 57 l 891 -40 l 888 -43 q 886 -45 887 -44 q 884 -48 885 -47 q 880 -50 883 -48 q 876 -54 877 -52 q 867 -58 872 -58 l 855 -58 l 843 -58 l 834 -49 q 833 -47 833 -48 q 832 -44 832 -45 l 832 57 l 804 57 m 956 36 l 956 -62 q 958 -67 956 -63 q 961 -74 960 -72 l 965 -79 q 968 -81 965 -79 q 971 -83 970 -83 q 988 -83 975 -83 q 1004 -84 1002 -84 l 1004 -62 q 999 -61 1003 -62 q 992 -58 995 -59 q 988 -55 990 -58 q 984 -54 986 -54 l 984 38 l 1004 38 l 1004 60 l 983 60 l 983 105 q 979 105 981 105 q 975 104 977 104 l 970 101 q 961 95 964 98 l 958 93 q 956 91 957 91 l 956 61 q 948 61 953 62 q 940 57 943 59 l 940 48 l 940 40 q 948 36 943 37 q 956 36 953 34 m 332 108 l 332 -79 l 434 -79 q 441 -77 436 -79 q 447 -74 445 -76 q 454 -70 450 -73 q 459 -66 459 -67 q 463 -61 461 -66 q 468 -54 466 -56 l 470 -51 q 472 -48 472 -49 q 475 -39 473 -45 q 476 -31 476 -33 l 476 -24 l 476 -19 q 475 -10 476 -16 q 472 -2 473 -4 q 460 9 469 0 q 447 19 451 19 q 454 27 450 22 q 459 36 458 33 q 463 44 463 40 q 464 52 463 46 q 465 62 465 58 q 464 66 465 64 q 463 72 463 69 l 463 77 q 461 84 463 79 q 455 91 458 89 l 451 96 q 445 100 450 98 q 438 104 440 102 q 433 107 437 105 q 427 108 429 108 l 332 108 m 676 -45 l 676 -44 q 680 -36 680 -40 q 685 -31 682 -34 q 688 -27 688 -29 l 694 -25 q 698 -23 697 -23 q 721 -19 704 -22 q 744 -15 738 -16 l 744 -20 l 744 -27 q 743 -36 744 -30 q 740 -44 741 -43 q 732 -51 738 -47 q 723 -58 726 -55 q 718 -61 723 -59 q 711 -62 713 -62 l 701 -62 l 693 -62 l 684 -58 q 679 -52 682 -55 q 676 -48 677 -50 l 676 -45 m 360 5 l 383 5 l 408 5 q 419 4 411 5 q 428 1 426 2 q 432 0 429 1 q 435 -2 435 -1 q 440 -6 437 -4 q 443 -11 443 -9 q 446 -16 444 -12 q 447 -23 447 -20 l 447 -25 l 447 -27 q 446 -34 447 -30 q 443 -40 444 -38 q 437 -45 441 -41 q 432 -50 433 -48 q 421 -54 428 -54 l 360 -54 l 360 5 m 566 36 l 579 36 q 587 29 580 36 q 596 19 593 22 q 600 13 600 19 q 601 9 601 12 q 601 5 601 7 l 528 5 l 528 9 q 530 15 528 9 q 532 19 532 16 l 544 32 q 546 33 544 33 q 548 34 547 33 q 553 36 550 36 l 566 36 m 360 86 l 383 86 l 408 86 q 417 84 411 86 q 425 81 423 83 q 431 76 428 80 q 435 69 435 72 l 435 65 q 435 61 435 62 q 436 59 436 61 q 435 56 436 58 q 435 52 435 55 l 435 48 q 433 44 435 47 q 432 40 432 41 q 424 34 429 37 q 416 31 419 31 l 360 31 l 360 86 "},"G":{"x_min":286.140625,"x_max":1111.203125,"ha":1389,"o":"m 1111 776 q 1037 698 1057 698 q 793 945 997 698 q 859 1007 815 973 q 1111 776 1005 834 m 619 937 q 486 795 552 866 q 343 677 395 699 q 286 747 319 708 q 422 870 354 809 q 537 1004 513 956 q 619 937 584 972 m 1107 291 q 1058 202 1098 273 q 712 388 834 284 q 347 194 587 273 q 297 276 333 213 q 647 450 530 355 q 487 704 597 511 q 562 745 516 723 q 625 630 593 687 q 700 523 662 565 q 776 641 738 559 q 830 773 802 707 q 925 720 891 743 q 843 590 890 680 q 765 462 795 500 q 927 359 829 404 q 1107 291 975 338 m 1083 58 q 1078 48 1082 56 q 1069 39 1075 39 q 1064 41 1065 39 q 1060 42 1062 42 q 1031 -7 1035 42 q 1031 -75 1031 -2 l 1012 -75 l 1012 62 q 1035 47 1022 59 q 1049 64 1051 64 q 1066 61 1054 64 q 1083 58 1078 58 m 983 -11 l 878 -15 l 878 -22 q 922 -59 878 -59 q 957 -31 947 -59 l 979 -31 q 959 -63 980 -48 q 922 -79 939 -79 q 873 -58 893 -79 q 853 -8 853 -37 q 918 64 853 64 q 983 -11 979 64 m 829 -75 l 805 -75 q 803 -59 803 -68 q 805 -36 803 -51 q 806 -15 806 -22 q 774 47 806 47 q 738 1 743 47 q 737 -69 737 -34 l 737 -75 l 718 -75 l 718 114 l 740 114 q 737 79 737 97 q 740 47 737 62 q 781 64 756 64 q 829 22 829 64 l 829 -75 m 693 -74 q 684 -76 689 -74 q 675 -79 678 -79 q 647 -62 663 -79 l 647 40 q 626 54 638 43 q 644 64 631 64 q 648 80 648 68 l 648 84 q 666 107 648 105 l 666 67 q 689 63 673 63 l 689 44 l 666 44 l 666 -44 q 693 -74 678 -52 m 611 -75 l 587 -75 q 580 -59 587 -66 q 533 -79 555 -79 q 487 -40 487 -79 q 535 2 487 -4 q 583 22 583 8 q 550 47 583 47 q 515 20 520 47 q 493 25 506 22 q 551 64 500 64 q 601 38 590 64 q 606 -17 608 23 q 611 -75 604 -58 m 463 90 l 363 90 l 363 33 l 451 33 l 451 12 l 366 12 l 366 -75 l 341 -75 l 341 114 l 463 114 l 463 90 m 960 8 q 921 47 944 47 q 892 34 900 47 q 876 8 884 22 l 960 8 m 583 -34 l 583 -8 q 545 -13 563 -10 q 512 -27 522 -17 l 512 -46 q 541 -59 527 -59 q 568 -51 554 -59 q 583 -34 583 -44 "},"U":{"x_min":270.65625,"x_max":1147.3125,"ha":1389,"o":"m 1130 517 l 277 517 l 277 580 l 564 580 l 564 657 l 370 657 l 370 872 l 558 872 q 563 908 563 890 q 558 949 563 928 l 310 949 l 310 1007 l 1094 1007 l 1094 949 l 827 949 q 820 911 820 911 q 827 872 820 911 l 1026 872 l 1026 657 l 820 657 l 820 580 l 1130 580 l 1130 517 m 1147 278 q 1072 217 1140 273 q 932 406 1036 300 q 994 459 944 418 q 1147 278 1070 398 m 797 370 q 723 329 762 343 q 654 433 712 359 q 682 458 657 440 q 716 480 698 469 q 797 370 772 426 m 962 307 q 941 233 962 272 q 884 190 916 190 l 565 190 q 526 205 548 190 q 504 239 504 221 l 504 471 l 581 471 q 599 463 592 471 q 583 437 599 452 l 583 287 q 662 262 583 262 q 873 280 869 262 l 893 349 q 962 328 900 349 l 962 307 m 912 -75 l 892 -75 l 892 -68 q 889 -60 892 -62 q 851 -79 875 -79 q 808 -56 825 -79 q 791 -5 791 -33 q 859 64 791 64 q 890 47 878 64 q 892 75 892 60 q 888 114 892 93 l 912 114 l 912 -75 m 773 -75 l 750 -75 q 743 -60 750 -66 q 696 -79 718 -79 q 649 -40 649 -79 q 697 1 649 -4 q 745 22 745 8 q 712 47 745 47 q 677 20 683 47 q 665 22 673 20 q 655 25 658 23 q 713 64 663 64 q 769 5 769 64 q 769 -16 769 -1 q 768 -40 768 -31 q 773 -75 768 -61 m 460 406 q 397 306 431 372 q 341 202 345 209 q 270 251 317 219 q 374 444 354 372 l 460 406 m 626 -19 q 612 -57 626 -40 q 577 -74 598 -74 l 486 -75 l 486 115 l 566 115 q 602 101 586 115 q 619 68 619 87 q 595 26 619 43 q 626 -19 626 8 m 951 725 l 951 811 l 823 811 l 823 725 l 951 725 m 746 874 l 746 946 l 641 946 l 641 874 l 746 874 m 746 725 l 746 811 l 641 811 l 641 725 l 746 725 m 746 578 l 746 658 l 639 658 l 639 578 l 746 578 m 562 722 l 562 811 l 448 811 l 448 722 l 562 722 m 893 -5 q 855 47 893 47 q 816 -5 816 47 q 856 -59 816 -59 q 893 -5 893 -59 m 745 -34 l 745 -8 q 708 -13 726 -11 q 675 -27 684 -18 l 675 -47 q 704 -59 690 -59 q 745 -34 745 -59 m 594 61 q 587 79 594 69 q 572 90 581 90 l 508 90 l 508 36 l 578 36 q 594 61 594 51 m 603 -19 q 595 0 603 -9 q 576 11 588 11 l 508 11 l 508 -51 l 581 -51 q 596 -39 589 -51 q 603 -19 603 -27 "},"F":{"x_min":257.828125,"x_max":1142.46875,"ha":1389,"o":"m 1142 628 l 1007 628 q 984 386 984 543 l 1114 386 l 1114 313 l 984 313 q 894 183 957 183 l 758 183 q 758 253 758 206 q 797 251 773 253 q 830 249 821 249 q 896 306 878 249 l 888 313 l 423 313 q 412 275 414 299 q 407 238 409 244 q 325 238 359 244 l 380 620 l 373 627 l 257 627 l 257 697 l 385 697 l 413 999 l 998 999 l 998 700 l 1142 700 l 1142 628 m 1115 58 q 1110 48 1114 56 q 1101 39 1107 39 q 1096 41 1096 39 q 1092 42 1096 42 q 1063 -5 1067 42 q 1063 -75 1063 -4 l 1044 -75 l 1044 62 q 1065 47 1054 59 q 1081 64 1085 64 q 1098 61 1086 64 q 1115 58 1110 58 m 1012 -11 l 906 -15 q 906 -22 906 -17 q 950 -59 906 -59 q 985 -31 975 -59 l 1008 -31 q 988 -63 1009 -48 q 950 -79 967 -79 q 901 -58 921 -79 q 881 -8 881 -37 q 946 64 881 64 q 1012 -11 1008 64 m 857 -75 l 833 -75 q 835 -15 835 -81 q 802 47 835 47 q 765 -2 770 47 q 765 -75 765 -38 l 746 -75 l 746 113 l 768 113 q 765 79 765 97 q 768 47 765 62 q 809 64 784 64 q 857 22 857 64 l 857 -75 m 724 -75 q 717 -77 723 -75 q 708 -79 712 -79 q 679 -62 695 -79 l 679 40 q 658 54 670 43 q 674 64 663 64 q 680 89 679 66 q 697 107 681 105 l 697 66 q 720 63 705 63 l 720 44 l 697 44 l 697 -44 q 724 -75 710 -52 m 643 -5 q 580 -79 643 -79 q 533 -58 552 -79 q 515 -8 515 -37 q 580 64 515 64 q 643 -5 643 64 m 486 -75 l 461 -75 l 460 79 q 408 -75 427 -9 l 385 -75 l 330 79 l 330 -75 l 305 -75 l 305 113 l 339 113 l 398 -43 l 456 113 l 486 113 l 486 -75 m 924 703 l 924 928 l 489 928 l 468 703 l 924 703 m 920 624 l 461 624 l 433 387 l 904 387 l 920 624 m 987 8 q 949 47 974 47 q 921 34 929 47 q 904 8 912 22 l 987 8 m 622 -5 q 610 29 622 12 q 580 47 598 47 q 538 -5 538 47 q 580 -59 538 -59 q 622 -5 622 -59 m 801 802 q 777 768 801 798 q 748 730 762 748 q 602 830 694 784 q 648 904 611 850 q 733 858 679 890 q 801 802 801 818 m 786 505 q 732 420 758 456 q 579 529 665 476 q 627 602 595 554 q 786 505 702 572 "},"r":{"x_min":301.265625,"x_max":1011,"ha":1389,"o":"m 979 228 q 958 200 979 214 q 925 186 938 186 l 821 186 q 805 272 817 215 q 860 272 798 272 q 905 285 888 272 l 905 481 l 543 481 q 366 167 519 290 q 301 236 336 196 q 418 366 376 285 q 461 537 461 447 l 461 1011 l 979 1011 l 979 228 m 1011 -75 l 988 -75 q 987 -65 987 -72 q 988 -40 987 -56 q 989 -15 989 -23 q 957 47 989 47 q 917 -31 917 47 q 919 -54 917 -37 q 919 -75 920 -66 l 901 -75 l 901 63 l 919 63 l 919 57 q 921 43 919 50 q 956 64 937 64 q 1011 26 1011 64 l 1011 -75 m 870 -5 q 807 -79 870 -79 q 760 -58 779 -79 q 742 -8 742 -37 q 807 64 742 64 q 870 -5 870 64 m 722 -5 q 660 -79 722 -79 q 612 -58 631 -79 q 594 -8 594 -37 q 660 64 594 64 q 722 -5 722 64 m 568 -75 l 544 -75 l 544 79 q 491 -75 511 -9 l 469 -75 l 413 79 l 413 -75 l 389 -75 l 389 113 l 423 113 l 481 -43 l 540 113 l 568 113 l 568 -75 m 904 790 l 904 928 l 536 928 l 536 790 l 904 790 m 904 564 l 904 701 l 536 701 l 536 564 l 904 564 m 848 -5 q 836 29 848 12 q 807 47 825 47 q 765 -5 765 47 q 807 -59 765 -59 q 848 -5 848 -59 m 702 -5 q 691 30 702 13 q 661 47 679 47 q 619 -5 619 47 q 661 -59 619 -59 q 702 -5 702 -59 "},"x":{"x_min":271,"x_max":1126.625,"ha":1389,"o":"m 1114 767 l 1024 767 l 1024 872 l 825 872 l 825 706 q 883 682 825 682 q 955 686 941 682 q 997 741 989 697 q 1071 709 1019 734 q 990 616 1064 636 q 854 610 961 610 q 760 636 787 610 q 740 708 740 658 q 745 783 740 727 q 750 872 750 838 l 626 872 q 562 670 593 706 q 371 563 532 633 l 329 637 q 465 698 391 645 q 547 810 547 755 l 547 872 l 371 872 l 371 746 l 282 746 l 282 950 l 654 950 l 654 1050 l 752 1050 l 744 1031 l 744 950 l 1114 950 l 1114 767 m 1126 190 l 271 190 l 271 276 l 654 276 l 654 443 l 361 443 l 361 526 l 1024 526 l 1024 443 l 735 443 l 735 276 l 1126 276 l 1126 190 m 912 63 q 879 -38 896 12 q 827 -131 857 -98 l 801 -126 l 801 -108 q 841 -75 841 -107 q 794 63 841 -68 l 816 63 q 855 -43 827 26 l 893 63 l 912 63 m 784 -73 q 775 -76 780 -76 q 739 -47 757 -76 q 712 -4 715 -6 q 692 -36 692 -18 q 694 -52 692 -42 q 697 -66 697 -61 q 695 -76 697 -70 l 675 -76 l 675 113 l 697 113 l 697 11 q 751 63 702 16 l 777 63 q 730 10 730 15 q 784 -73 730 3 m 639 -20 q 616 -60 639 -44 q 566 -76 594 -76 q 514 -58 537 -76 q 489 -12 490 -40 l 511 -12 q 528 -43 509 -31 q 566 -55 547 -55 q 615 -23 615 -55 q 555 15 615 -1 q 496 63 496 31 q 564 115 496 115 q 634 63 625 115 l 611 63 q 564 95 597 95 q 519 65 519 95 q 579 33 519 48 q 639 -20 639 18 "},"V":{"x_min":278,"x_max":1122.515625,"ha":1389,"o":"m 1122 226 l 278 226 l 278 301 l 678 301 l 678 527 l 421 527 l 421 603 l 678 603 l 678 781 l 479 781 q 339 566 425 661 q 282 629 305 600 q 444 983 428 786 q 534 962 486 979 q 505 853 503 886 l 678 853 l 678 1043 l 769 1043 l 759 1024 l 759 853 l 1075 853 l 1075 781 l 759 781 l 759 603 l 1027 603 l 1027 527 l 759 527 l 759 301 l 1122 301 l 1122 226 m 904 -11 l 799 -15 l 799 -22 q 843 -60 799 -60 q 877 -31 868 -60 l 900 -31 q 880 -63 901 -48 q 843 -79 859 -79 q 794 -58 814 -79 q 774 -8 774 -37 q 839 64 774 64 q 904 -11 900 64 m 670 87 l 652 87 l 652 113 l 670 113 l 670 87 m 773 115 q 769 95 771 108 q 759 95 769 95 q 739 73 737 95 l 739 66 q 759 62 744 62 l 759 44 l 739 44 l 739 -75 l 714 -75 l 714 41 q 695 45 709 45 l 695 64 l 714 64 q 719 93 715 66 q 733 115 723 115 l 773 115 m 670 -75 l 652 -75 l 652 64 l 670 64 l 670 -75 m 622 -75 l 505 -75 l 505 113 l 528 113 l 528 -50 l 622 -50 l 622 -75 m 880 8 q 842 47 867 47 q 815 34 823 47 q 799 8 807 22 l 880 8 "},"":{"x_min":0,"x_max":0,"ha":1389},"h":{"x_min":267.296875,"x_max":1137.640625,"ha":1389,"o":"m 972 609 q 926 538 959 587 q 786 632 854 591 q 826 694 804 666 q 972 609 880 673 m 979 423 q 934 344 963 397 q 782 450 887 384 q 822 515 791 476 q 979 423 926 459 m 1137 925 l 739 925 l 739 814 l 1095 814 l 1095 243 q 1078 207 1095 224 q 1040 190 1061 190 l 929 190 q 908 276 922 219 q 968 276 901 276 q 1017 289 996 276 l 1017 738 l 739 738 l 739 221 l 660 221 l 660 738 l 390 738 l 390 194 l 311 194 l 311 811 l 659 811 l 659 922 l 267 922 l 267 996 l 1137 996 l 1137 925 m 622 609 q 577 538 611 587 q 440 627 519 590 q 486 690 448 641 q 622 609 522 673 m 630 406 q 586 337 623 393 q 431 437 534 370 q 477 504 450 468 q 630 406 526 483 m 804 87 l 786 87 l 786 114 l 804 114 l 804 87 m 951 -75 l 928 -75 q 927 -65 927 -72 q 928 -40 927 -56 q 930 -15 930 -23 q 898 47 930 47 q 857 -31 857 47 q 859 -54 857 -37 q 859 -75 860 -66 l 841 -75 l 841 63 l 859 63 l 859 57 q 861 43 859 50 q 898 64 877 64 q 951 26 951 64 l 951 -75 m 804 -75 l 786 -75 l 786 63 l 804 63 l 804 -75 m 753 -75 l 731 -75 q 724 -59 731 -66 q 676 -79 699 -79 q 631 -40 631 -79 q 678 2 631 -4 q 726 22 726 8 q 692 47 726 47 q 658 20 664 47 q 646 22 653 20 q 635 25 639 23 q 694 64 642 64 q 750 4 750 64 q 749 -18 750 -2 q 749 -40 749 -31 q 753 -75 749 -61 m 611 -74 l 604 -75 q 556 -34 577 -76 q 516 8 534 8 l 473 8 q 473 -75 469 -30 l 448 -75 l 448 115 l 541 115 q 594 63 594 115 q 547 9 594 29 q 582 -29 562 1 q 611 -74 595 -51 m 724 -34 l 724 -8 q 688 -13 706 -11 q 654 -27 665 -18 l 654 -47 q 684 -59 669 -59 q 710 -52 695 -59 q 724 -34 724 -44 m 570 63 q 537 94 570 94 l 472 94 l 472 31 l 544 31 q 570 63 570 31 "},"0":{"x_min":310,"x_max":1088,"ha":1389,"o":"m 1088 612 q 972 339 1088 453 q 699 226 857 226 q 425 339 540 226 q 310 612 310 453 q 424 886 310 772 q 699 1000 539 1000 q 972 886 857 1000 q 1088 612 1088 772 m 956 -5 q 894 -79 956 -79 q 847 -58 866 -79 q 829 -8 829 -37 q 894 64 829 64 q 956 -5 956 64 m 825 59 q 820 50 823 57 q 811 43 816 43 q 806 43 807 43 q 801 43 805 43 q 772 -5 778 43 q 773 -75 773 -4 l 754 -75 l 754 64 q 776 47 763 60 q 790 64 795 64 q 808 61 797 64 q 825 59 819 59 m 725 -11 l 621 -15 q 620 -22 620 -18 q 664 -60 620 -60 q 698 -31 689 -60 l 721 -31 q 702 -63 722 -48 q 664 -79 682 -79 q 615 -58 635 -79 q 595 -8 595 -37 q 661 64 595 64 q 725 -11 722 64 m 579 -75 l 429 -75 l 429 -53 l 543 90 l 440 90 l 444 114 l 575 114 l 575 88 l 460 -50 l 579 -50 l 579 -75 m 1009 615 q 916 832 1009 740 q 699 925 824 925 q 481 831 573 925 q 389 615 389 738 q 480 395 389 485 q 699 305 571 305 q 917 395 826 305 q 1009 615 1009 485 m 937 -5 q 925 29 937 12 q 895 47 913 47 q 853 -5 853 47 q 895 -60 853 -60 q 937 -5 937 -60 m 701 8 q 662 47 689 47 q 635 34 643 47 q 620 8 626 22 l 701 8 "},"f":{"x_min":278.015625,"x_max":1122.984375,"ha":1389,"o":"m 1122 265 l 1099 179 l 1082 179 q 1013 200 1064 179 q 835 294 900 244 q 789 329 817 312 q 473 166 561 173 q 448 248 466 184 q 727 387 628 304 q 597 607 646 497 q 326 198 530 345 q 278 272 325 202 q 547 811 509 444 l 539 818 l 290 818 l 290 888 l 555 888 q 555 1050 559 998 q 646 1047 616 1047 q 631 895 639 1001 l 639 889 l 1107 889 l 1107 818 l 635 818 q 616 690 614 737 l 910 690 l 927 705 l 996 652 q 928 520 979 625 q 849 394 888 440 q 1122 265 913 323 m 1051 -75 l 1031 -75 l 1031 -68 q 1028 -59 1031 -62 q 991 -79 1015 -79 q 949 -54 967 -79 q 932 -5 932 -30 q 998 64 932 64 q 1028 47 1020 64 q 1031 75 1031 59 q 1027 114 1031 93 l 1051 114 l 1051 -75 m 909 -75 l 885 -75 q 886 -15 886 -79 q 856 47 886 47 q 818 -2 824 47 q 817 -75 817 -38 l 799 -75 l 799 63 l 817 63 l 817 57 q 819 43 817 50 q 854 64 835 64 q 909 26 909 64 l 909 -75 m 610 87 l 591 87 l 591 114 l 610 114 l 610 87 m 769 -11 l 663 -15 q 663 -22 663 -17 q 708 -59 663 -59 q 743 -31 733 -59 l 765 -31 q 745 -63 766 -48 q 708 -79 725 -79 q 659 -58 679 -79 q 638 -8 638 -37 q 704 64 638 64 q 769 -11 765 64 m 610 -75 l 591 -75 l 591 63 l 610 63 l 610 -75 m 574 58 q 570 48 573 56 q 560 39 567 39 q 556 41 556 39 q 551 42 555 42 q 522 -5 527 42 q 523 -75 523 -4 l 504 -75 l 504 62 q 526 47 513 59 q 541 64 545 64 q 558 61 547 64 q 574 58 569 58 m 470 90 l 372 90 l 372 33 l 459 33 l 459 12 l 375 12 l 375 -75 l 350 -75 l 350 114 l 470 114 l 470 90 m 881 618 l 674 618 q 787 440 709 531 q 881 618 858 537 m 1032 -5 q 994 47 1032 47 q 955 -5 955 47 q 995 -59 955 -59 q 1032 -5 1032 -59 m 745 8 q 705 47 730 47 q 678 34 685 47 q 662 8 670 22 l 745 8 "},"i":{"x_min":278,"x_max":1114,"ha":1389,"o":"m 1007 722 l 778 722 l 778 785 l 1007 785 l 1007 722 m 1007 607 l 778 607 l 778 665 l 1007 665 l 1007 607 m 1114 715 l 1040 715 l 1040 836 l 739 836 l 739 563 l 660 563 l 660 836 l 354 836 l 354 706 l 278 706 l 278 901 l 660 901 l 660 963 l 361 963 l 361 1035 l 1039 1035 l 1039 963 l 738 963 l 738 901 l 1114 901 l 1114 715 m 614 722 l 397 722 l 397 785 l 614 785 l 614 722 m 614 607 l 397 607 l 397 665 l 614 665 l 614 607 m 1047 161 l 968 161 l 968 184 l 361 184 l 361 262 l 968 262 l 968 336 l 361 336 l 361 401 l 968 401 l 968 458 l 361 458 l 361 530 l 1047 530 l 1047 161 m 1023 63 q 983 -75 1009 17 l 961 -75 q 933 23 951 -41 q 904 -75 920 8 l 877 -75 l 841 63 l 859 63 q 890 -42 869 28 q 920 63 911 16 l 943 63 q 970 -39 951 29 q 1004 63 970 -38 l 1023 63 m 825 -5 q 764 -79 825 -79 q 717 -58 735 -79 q 699 -8 699 -37 q 764 64 699 64 q 825 -5 825 64 m 674 -75 l 651 -75 q 650 -65 650 -72 q 651 -40 650 -56 q 653 -15 653 -23 q 621 47 653 47 q 580 -32 580 47 q 582 -54 580 -37 q 582 -75 583 -66 l 564 -75 l 564 63 l 583 63 l 582 57 q 584 43 582 50 q 621 64 601 64 q 674 26 674 64 l 674 -75 m 531 -22 q 508 -63 531 -47 q 459 -79 485 -79 q 406 -60 430 -79 q 382 -12 382 -41 l 404 -12 q 421 -43 402 -31 q 459 -55 440 -55 q 508 -23 508 -55 q 448 13 508 -1 q 389 63 389 29 q 455 115 389 115 q 527 60 517 115 l 504 60 q 455 96 490 96 q 412 65 412 96 q 472 29 412 39 q 531 -22 531 19 m 805 -5 q 793 29 805 12 q 763 47 782 47 q 722 -5 722 47 q 763 -59 722 -59 q 805 -5 805 -59 "},"6":{"x_min":254,"x_max":1142.953125,"ha":1389,"o":"m 1122 754 l 285 754 l 285 836 l 654 836 l 654 1020 l 760 1015 q 746 988 760 1000 l 746 836 l 1122 836 l 1122 754 m 1142 308 l 1092 213 q 897 402 983 284 q 773 645 815 515 l 851 673 q 969 468 894 566 q 1142 308 1049 363 m 626 637 q 497 394 562 515 q 306 198 417 262 q 254 280 280 243 q 533 677 442 405 q 626 637 563 665 m 729 89 l 711 89 l 711 115 l 729 115 l 729 89 m 876 -73 q 865 -78 870 -78 q 840 -57 854 -78 q 819 -28 819 -29 q 780 -78 809 -35 l 754 -78 l 801 -5 q 758 62 787 12 l 780 62 q 815 15 791 46 q 849 62 826 31 l 872 62 q 829 -5 855 32 q 876 -73 851 -33 m 729 -78 l 711 -78 l 711 62 l 729 62 l 729 -78 m 678 -21 q 655 -62 678 -46 q 606 -78 633 -78 q 553 -59 577 -78 q 527 -12 529 -41 l 551 -12 q 567 -42 549 -31 q 606 -54 585 -54 q 654 -22 654 -54 q 595 15 654 -3 q 536 64 536 33 q 602 115 536 115 q 673 62 665 115 l 654 62 q 634 84 649 73 q 604 96 618 96 q 560 65 560 96 q 619 32 560 47 q 678 -21 678 17 "},"A":{"x_min":275,"x_max":1134.921875,"ha":1389,"o":"m 1023 970 q 986 971 1036 971 l 369 927 q 337 942 340 927 q 325 994 331 967 q 705 1022 445 998 q 958 1043 952 1043 q 1023 970 977 1043 m 1070 597 q 1043 572 1066 586 q 1005 547 1011 552 q 893 676 940 627 q 950 713 943 713 q 1070 597 966 713 m 757 849 l 679 824 q 620 902 661 849 q 696 927 695 927 q 757 849 713 927 m 1110 651 l 1036 651 l 1036 750 l 350 750 l 350 638 l 275 638 l 275 813 l 822 813 q 897 951 833 826 q 942 931 911 945 q 987 911 973 916 q 908 816 962 882 l 1110 816 l 1110 651 m 765 663 q 700 626 748 651 q 643 712 680 655 q 704 737 705 737 q 765 663 716 737 m 551 845 q 469 821 476 821 q 444 847 464 821 q 412 891 415 888 q 490 916 487 916 q 551 845 504 916 m 1134 269 q 1101 186 1130 256 l 1058 186 q 836 229 964 186 q 722 273 708 273 q 339 179 399 177 l 306 179 q 290 253 300 201 q 650 311 495 259 q 537 408 590 355 q 339 325 458 350 q 314 391 326 345 q 575 533 473 424 q 550 546 562 539 q 528 573 528 560 l 528 720 l 607 720 q 595 656 595 653 q 601 605 595 617 q 628 594 608 594 q 660 596 633 594 q 710 598 687 598 q 733 598 717 598 q 762 597 751 597 q 829 636 829 597 q 822 665 829 648 q 889 650 836 659 l 889 627 q 826 536 889 536 l 661 536 q 626 494 649 516 l 898 492 q 918 504 907 492 q 980 458 939 487 q 801 315 862 358 q 1134 269 937 264 m 495 657 q 398 523 463 612 q 333 565 375 533 q 422 694 379 604 q 495 657 458 682 m 975 -11 l 869 -15 q 879 -46 866 -33 q 913 -59 893 -59 q 948 -31 938 -59 l 970 -31 q 952 -63 972 -47 q 913 -79 933 -79 q 864 -58 884 -79 q 844 -8 844 -37 q 911 64 844 64 q 975 -11 970 64 m 833 63 l 784 -75 l 758 -75 l 711 63 l 733 63 q 772 -43 744 28 q 814 63 784 -8 l 833 63 m 695 -5 q 633 -79 695 -79 q 583 -54 601 -79 q 567 -8 567 -33 q 633 64 567 64 q 695 -5 695 64 m 552 -75 l 434 -75 l 434 113 l 456 113 l 456 -50 l 552 -50 l 552 -75 m 848 427 l 599 427 q 724 345 708 345 q 848 427 748 345 m 951 8 q 912 47 937 47 q 884 34 893 47 q 869 8 876 22 l 951 8 m 675 -5 q 664 28 675 9 q 633 47 653 47 q 592 -5 592 47 q 633 -59 592 -59 q 675 -5 675 -59 "},"O":{"x_min":289.90625,"x_max":1081.8125,"ha":1389,"o":"m 1081 532 q 1054 327 1067 429 q 956 183 1023 183 l 801 183 l 801 254 q 956 284 929 254 q 987 472 988 320 l 722 472 l 722 455 q 576 244 726 344 q 317 156 438 156 q 289 238 307 182 q 506 297 410 242 q 638 469 617 361 l 330 469 l 330 531 l 646 531 q 658 630 659 561 l 458 630 q 451 595 445 620 l 378 595 l 378 1022 l 1024 1022 l 1024 606 l 944 606 l 944 630 l 741 630 q 729 532 729 591 l 1081 532 m 919 63 q 887 -38 904 12 q 836 -131 865 -98 l 810 -126 l 810 -108 q 848 -75 848 -107 q 801 63 848 -68 l 825 63 q 862 -43 836 26 l 901 63 l 919 63 m 782 -5 q 719 -79 782 -79 q 672 -58 691 -79 q 654 -8 654 -37 q 719 64 654 64 q 782 -5 782 64 m 635 -19 q 619 -57 635 -40 q 585 -75 604 -75 l 493 -75 l 493 115 l 572 115 q 610 101 593 115 q 626 67 626 87 q 603 26 626 41 q 635 -19 635 8 m 943 861 l 943 964 l 743 964 l 743 861 l 943 861 m 943 690 l 943 801 l 743 801 l 743 690 l 943 690 m 662 864 l 662 964 l 454 964 l 454 864 l 662 864 m 662 693 l 662 801 l 454 801 l 454 693 l 662 693 m 761 -5 q 750 30 761 13 q 719 47 738 47 q 677 -5 677 47 q 719 -59 677 -59 q 761 -5 761 -59 m 602 61 q 595 79 602 68 q 580 90 587 90 l 516 90 l 516 36 l 586 36 q 602 61 602 51 m 611 -19 q 602 0 611 -11 q 584 11 593 11 l 516 11 l 516 -51 l 588 -51 q 603 -39 595 -51 q 611 -19 611 -27 "},"n":{"x_min":250.03125,"x_max":1137.625,"ha":1389,"o":"m 1137 833 l 989 833 q 989 758 984 798 l 913 758 l 913 832 l 771 832 q 771 758 768 797 l 690 758 l 690 832 l 548 832 l 548 909 l 689 909 l 689 1035 l 780 1035 l 770 1017 l 770 909 l 913 909 l 913 1043 l 996 1043 l 996 1038 q 988 1018 994 1028 l 988 910 l 1137 910 l 1137 833 m 1113 179 l 1036 179 l 1036 218 l 665 218 q 662 170 662 202 l 587 170 l 587 714 l 1113 714 l 1113 179 m 570 978 q 468 833 534 933 q 511 637 511 711 l 511 287 q 479 207 511 244 q 405 170 448 170 l 330 170 q 317 245 328 177 q 351 241 334 241 q 440 319 440 241 q 440 433 440 362 q 437 547 437 519 q 291 380 377 440 l 254 447 q 432 666 432 629 q 413 765 432 709 q 295 675 375 734 q 250 740 290 679 q 318 789 308 780 q 376 847 355 818 q 281 986 347 900 q 327 1035 301 1012 q 381 979 352 1021 q 426 912 404 946 q 497 1019 455 936 q 570 978 545 996 m 899 -74 q 891 -76 897 -74 q 883 -79 885 -79 q 852 -62 870 -79 l 852 40 q 833 54 845 43 q 849 64 837 64 q 855 88 853 66 q 872 107 855 105 l 872 67 q 895 63 878 63 l 895 44 l 872 44 l 872 -44 q 899 -74 884 -52 m 817 -75 l 794 -75 q 788 -59 794 -66 q 740 -79 763 -79 q 695 -40 695 -79 q 742 2 695 -4 q 789 22 789 8 q 755 47 789 47 q 721 20 726 47 q 709 22 717 20 q 699 25 701 23 q 758 64 708 64 q 814 4 814 64 q 813 -18 814 -2 q 813 -40 813 -31 q 817 -75 813 -61 m 671 -22 q 642 -60 671 -42 q 591 -79 613 -79 q 527 -49 551 -79 q 504 19 504 -20 q 527 87 504 60 q 592 115 551 115 q 666 65 645 115 l 648 55 q 625 82 637 69 q 591 95 613 95 q 527 19 527 95 q 591 -55 527 -55 q 646 -8 641 -55 q 671 -22 671 -18 m 1035 496 l 1035 642 l 882 642 l 882 496 l 1035 496 m 1035 294 l 1035 436 l 882 436 l 882 294 l 1035 294 m 813 499 l 813 642 l 665 642 l 665 499 l 813 499 m 813 294 l 813 436 l 662 436 l 662 294 l 813 294 m 788 -34 l 788 -8 q 750 -14 770 -11 q 718 -27 729 -18 l 718 -47 q 747 -59 733 -59 q 788 -34 788 -59 "},"3":{"x_min":281.96875,"x_max":1113.984375,"ha":1389,"o":"m 1047 870 l 354 870 l 354 956 l 1047 956 l 1047 870 m 991 576 l 405 576 l 405 658 l 991 658 l 991 576 m 1113 263 l 281 263 l 281 345 l 1113 345 l 1113 263 m 1034 -11 l 929 -15 q 929 -22 929 -17 q 973 -59 929 -59 q 1008 -31 998 -59 l 1030 -31 q 1010 -63 1031 -48 q 973 -79 990 -79 q 924 -58 944 -79 q 904 -8 904 -37 q 969 64 904 64 q 1034 -11 1030 64 m 887 -11 l 783 -15 q 781 -22 781 -17 q 827 -59 781 -59 q 860 -31 852 -59 l 884 -31 q 864 -63 884 -48 q 827 -79 844 -79 q 777 -58 796 -79 q 758 -8 758 -37 q 823 64 758 64 q 887 -11 884 64 m 753 58 q 748 48 752 56 q 739 39 745 39 q 735 41 735 39 q 730 42 734 42 q 701 -5 705 42 q 701 -75 701 -4 l 684 -75 l 684 62 q 703 47 693 59 q 719 64 723 64 q 737 61 726 64 q 753 58 748 58 m 646 -75 l 623 -75 q 625 -15 625 -79 q 593 47 625 47 q 555 -2 561 47 q 554 -75 555 -38 l 536 -75 l 536 114 l 558 114 q 555 79 555 97 q 558 47 555 62 q 598 64 573 64 q 646 22 646 64 l 646 -75 m 507 92 l 446 92 l 446 -75 l 420 -75 l 420 91 q 361 91 391 93 l 361 114 l 507 114 l 507 92 m 1011 8 q 972 47 997 47 q 944 34 952 47 q 929 8 936 22 l 1011 8 m 863 8 q 824 46 849 46 q 796 34 805 46 q 781 8 788 21 l 863 8 "},"]":{"x_min":320,"x_max":1067,"ha":1389,"o":"m 1067 255 q 1051 220 1067 237 q 1017 203 1035 203 l 906 203 l 881 289 l 907 289 l 977 289 l 977 563 l 410 563 l 410 203 l 320 203 l 320 988 l 1067 988 l 1067 255 m 917 -74 l 893 -74 q 893 -63 893 -71 q 893 -39 893 -56 q 893 -14 893 -23 q 862 47 893 47 q 823 -31 823 47 q 823 -51 823 -36 q 823 -74 823 -65 l 806 -74 l 806 64 l 823 64 l 823 58 q 825 43 821 50 q 861 64 841 64 q 917 26 917 64 l 917 -74 m 774 -11 l 673 -15 q 672 -22 672 -18 q 717 -60 672 -60 q 750 -31 742 -60 l 774 -31 q 753 -63 774 -48 q 717 -79 733 -79 q 667 -58 686 -79 q 648 -8 648 -37 q 711 64 648 64 q 774 -11 771 64 m 635 113 q 587 39 610 76 q 561 -46 561 -6 q 561 -74 561 -60 l 544 -74 q 544 -46 544 -60 q 517 37 544 -9 q 468 113 493 76 l 495 113 l 550 27 q 608 113 565 45 l 635 113 m 977 639 l 977 913 l 731 913 l 731 639 l 977 639 m 648 639 l 648 913 l 410 913 l 410 639 l 648 639 m 753 8 q 714 47 740 47 q 687 34 695 47 q 672 8 678 21 l 753 8 "},"9":{"x_min":273,"x_max":1145.28125,"ha":1389,"o":"m 1145 408 q 1080 248 1131 277 q 910 229 1048 229 q 805 319 799 229 l 829 738 l 670 738 l 676 697 q 568 391 687 541 q 293 206 449 240 q 273 308 293 209 q 506 459 421 347 q 591 725 591 571 q 584 738 591 725 l 353 738 l 353 821 l 595 821 l 595 1043 l 676 1043 l 670 1018 l 670 821 l 918 821 l 893 366 q 902 317 893 366 l 1012 317 q 1041 371 1034 333 q 1052 431 1046 401 l 1145 408 m 959 -11 l 854 -15 q 854 -22 854 -18 q 898 -60 854 -60 q 932 -31 923 -60 l 955 -31 q 935 -63 956 -48 q 898 -79 914 -79 q 849 -58 869 -79 q 829 -8 829 -37 q 894 64 829 64 q 959 -11 955 64 m 657 88 l 638 88 l 638 114 l 657 114 l 657 88 m 805 -74 l 781 -74 q 781 -63 781 -71 q 781 -39 781 -56 q 781 -14 781 -23 q 750 47 781 47 q 711 -31 711 47 q 711 -51 711 -36 q 711 -74 711 -65 l 694 -74 l 694 64 l 711 64 l 711 58 q 713 43 709 50 q 749 64 729 64 q 805 26 805 64 l 805 -74 m 657 -74 l 638 -74 l 638 64 l 657 64 l 657 -74 m 595 -74 l 567 -74 l 473 68 l 473 -74 l 448 -74 l 448 114 l 470 113 l 570 -31 l 570 114 l 595 114 l 595 -74 m 935 8 q 897 47 920 47 q 869 34 877 47 q 854 8 862 21 l 935 8 "},"m":{"x_min":254,"x_max":1141.578125,"ha":1389,"o":"m 1141 194 l 254 194 l 254 270 l 679 270 l 679 360 l 420 360 l 420 438 l 679 438 l 679 519 l 483 519 q 338 400 415 448 q 301 466 324 422 q 413 561 354 495 q 497 682 472 627 q 566 644 533 668 q 531 598 544 618 q 569 597 538 597 l 679 597 l 679 689 l 389 689 l 389 1022 l 1020 1022 l 1020 689 l 757 689 l 757 597 l 1051 597 l 1051 519 l 757 519 l 757 438 l 991 438 l 991 360 l 757 360 l 757 270 l 1141 270 l 1141 194 m 944 58 q 939 48 942 56 q 930 40 936 40 q 925 41 926 40 q 920 43 924 43 q 891 -5 895 43 q 891 -75 891 -4 l 873 -75 l 873 62 q 895 47 883 59 q 909 63 915 63 q 927 61 916 63 q 944 58 938 58 m 840 -75 l 817 -75 q 811 -59 817 -66 q 763 -79 786 -79 q 718 -40 718 -79 q 766 2 718 -4 q 814 22 814 8 q 779 47 814 47 q 744 20 751 47 q 733 22 740 20 q 722 25 726 23 q 781 63 731 63 q 836 4 836 63 q 836 -18 836 -2 q 836 -40 836 -31 q 840 -75 836 -61 m 701 -74 q 692 -76 698 -74 q 684 -79 687 -79 q 654 -62 672 -79 l 654 40 q 635 54 647 43 q 651 63 640 63 q 656 88 655 66 q 673 106 658 105 l 673 66 q 698 62 681 62 l 698 44 l 673 44 l 673 -44 q 701 -74 685 -52 m 619 -22 q 595 -63 619 -47 q 546 -79 572 -79 q 492 -60 517 -79 q 467 -12 468 -41 l 490 -12 q 507 -43 489 -31 q 546 -55 525 -55 q 594 -23 594 -55 q 535 14 594 -2 q 476 63 476 31 q 542 115 476 115 q 613 59 605 115 l 591 59 q 572 84 587 72 q 542 95 556 95 q 499 65 499 95 q 559 32 499 47 q 619 -22 619 16 m 942 892 l 942 961 l 467 961 l 467 892 l 942 892 m 942 754 l 942 825 l 467 825 l 467 754 l 942 754 m 814 -34 l 814 -8 q 774 -14 795 -11 q 742 -27 753 -18 l 742 -47 q 773 -59 757 -59 q 814 -34 814 -59 "},"8":{"x_min":257.984375,"x_max":1146.40625,"ha":1389,"o":"m 1146 315 l 1097 214 q 849 554 940 310 q 770 979 770 764 l 845 992 q 917 618 870 741 q 1146 315 983 444 m 624 958 l 608 937 q 530 544 566 653 q 314 205 466 354 q 257 296 288 240 q 455 615 395 433 q 528 983 488 718 q 624 958 578 969 m 996 -74 q 988 -76 994 -74 q 978 -79 982 -79 q 949 -62 966 -79 l 949 40 q 928 54 941 43 q 946 64 934 64 q 950 88 949 66 q 969 107 952 105 l 969 67 q 992 63 975 63 l 992 44 l 969 44 l 969 -44 q 996 -74 981 -52 m 909 -75 l 885 -75 q 887 -15 887 -79 q 856 47 887 47 q 818 -2 824 47 q 817 -75 817 -38 l 799 -75 l 799 114 l 821 114 q 817 79 817 97 q 819 47 817 62 q 861 64 836 64 q 909 22 909 64 l 909 -75 m 609 87 l 591 87 l 591 114 l 609 114 l 609 87 m 757 -94 q 735 -119 757 -108 q 698 -131 713 -131 q 642 -87 659 -131 q 674 -105 642 -87 q 711 -111 684 -111 q 736 -80 721 -111 l 733 -59 q 694 -75 711 -75 q 653 -52 669 -75 q 638 -4 638 -30 q 706 64 638 64 q 736 47 724 64 q 738 62 739 50 l 757 62 l 757 -94 m 609 -75 l 591 -75 l 591 62 l 609 62 l 609 -75 m 558 -74 l 420 -74 l 420 114 l 553 114 l 553 90 l 444 90 l 444 37 l 546 38 l 546 10 l 444 10 l 444 -49 l 558 -49 l 558 -74 m 737 -5 q 700 47 737 47 q 662 -4 662 47 q 700 -55 662 -55 q 737 -5 737 -55 "},"l":{"x_min":254.515625,"x_max":1122.640625,"ha":1389,"o":"m 1109 863 l 866 863 q 866 786 861 823 l 789 786 l 789 860 l 595 860 q 597 786 591 823 l 517 786 l 517 860 l 275 860 l 275 937 l 516 937 l 516 1043 l 607 1043 l 594 1025 l 594 937 l 787 937 l 787 1043 l 875 1043 l 863 1025 l 863 938 l 1109 938 l 1109 863 m 1122 347 q 1092 237 1122 270 q 986 204 1061 204 q 941 202 979 204 q 878 201 903 201 q 699 268 699 201 l 699 765 l 781 765 q 777 748 781 759 q 774 732 774 737 l 778 580 q 1025 713 887 611 q 1090 637 1068 686 q 932 568 1033 616 q 774 497 824 516 l 774 298 q 785 282 774 294 l 1008 282 q 1030 332 1025 298 q 1040 388 1039 384 l 1122 368 l 1122 347 m 1098 58 q 1094 48 1097 56 q 1084 40 1091 40 q 1079 41 1080 40 q 1074 43 1078 43 q 1047 -5 1051 43 q 1047 -75 1047 -4 l 1027 -75 l 1027 62 q 1049 47 1037 59 q 1065 64 1069 64 q 1081 61 1070 64 q 1098 58 1092 58 m 998 -11 l 894 -15 q 892 -22 892 -17 q 938 -59 892 -59 q 971 -31 963 -59 l 995 -31 q 975 -63 995 -48 q 938 -79 955 -79 q 888 -58 907 -79 q 869 -8 869 -37 q 934 64 869 64 q 998 -11 995 64 m 578 722 q 543 679 571 722 q 516 629 516 637 l 516 183 l 438 183 l 437 515 q 371 451 404 483 q 298 393 330 411 q 254 462 292 405 q 398 601 328 515 q 502 773 475 694 l 575 737 l 578 722 m 856 63 q 816 -75 843 17 l 794 -75 q 767 23 785 -41 q 737 -75 754 8 l 711 -75 l 675 63 l 693 63 q 724 -42 703 28 q 754 63 744 17 l 776 63 q 804 -39 784 29 q 837 63 804 -38 l 856 63 m 659 -5 q 598 -79 659 -79 q 551 -58 569 -79 q 533 -8 533 -37 q 598 64 533 64 q 659 -5 659 64 m 503 -75 l 485 -75 l 485 114 l 503 114 l 503 -75 m 448 90 l 349 90 l 349 33 l 437 33 l 437 12 l 350 12 l 350 -75 l 327 -75 l 327 114 l 448 114 l 448 90 m 974 8 q 935 47 962 47 q 907 34 916 47 q 892 8 899 22 l 974 8 m 638 -5 q 627 29 638 12 q 597 47 615 47 q 555 -5 555 47 q 597 -59 555 -59 q 638 -5 638 -59 "},"4":{"x_min":308,"x_max":1081,"ha":1389,"o":"m 1081 234 l 1004 234 l 1004 293 l 386 293 q 386 226 384 273 l 308 226 l 308 947 l 1081 947 l 1081 234 m 971 58 q 966 48 970 56 q 957 39 963 39 q 953 41 953 39 q 948 42 952 42 q 919 -5 923 42 q 919 -75 919 -4 l 901 -75 l 901 62 q 923 47 910 59 q 937 64 942 64 q 955 61 944 64 q 971 58 966 58 m 863 -75 l 842 -75 l 842 -68 q 839 -59 842 -62 q 797 -79 819 -79 q 771 -68 788 -79 q 755 -48 755 -58 l 755 63 l 774 63 q 772 40 774 56 q 771 17 771 25 q 803 -59 771 -59 q 843 0 843 -59 q 841 25 843 7 q 840 51 840 43 q 841 63 840 60 l 863 63 l 863 -75 m 722 -5 q 660 -79 722 -79 q 612 -58 631 -79 q 594 -8 594 -37 q 660 64 594 64 q 722 -5 722 64 m 570 90 l 471 90 l 471 33 l 557 33 l 557 12 l 473 12 l 473 -75 l 448 -75 l 448 114 l 570 114 l 570 90 m 1003 630 l 1003 872 l 814 872 l 814 588 q 861 559 814 559 q 911 584 900 559 q 927 646 919 615 q 1003 630 952 641 m 1003 365 l 1003 574 q 905 485 978 485 l 808 485 q 738 528 738 485 l 738 872 l 615 872 q 598 608 615 674 q 427 424 560 460 q 386 483 402 455 l 386 365 l 1003 365 m 539 699 l 539 872 l 386 872 l 386 503 q 491 576 443 515 q 539 699 539 638 m 702 -5 q 690 30 702 13 q 660 47 678 47 q 619 -5 619 47 q 660 -59 619 -59 q 702 -5 702 -59 "},"p":{"x_min":281.96875,"x_max":1109.71875,"ha":1389,"o":"m 1109 554 l 468 554 l 468 502 l 1090 502 q 1070 318 1080 410 q 1005 175 1048 175 l 841 175 l 841 207 l 841 246 q 987 276 965 246 q 1004 439 1004 298 l 393 439 l 393 979 l 596 979 q 615 1067 609 1025 l 632 1067 q 710 1050 658 1067 q 678 982 698 1027 l 960 982 l 960 675 l 468 675 l 468 621 l 1109 621 l 1109 554 m 936 298 q 870 273 905 291 q 805 400 848 315 l 866 425 q 936 298 918 361 m 769 247 l 687 226 q 651 379 676 277 q 708 397 712 397 q 744 330 722 397 q 769 247 757 288 m 913 -75 l 893 -75 l 893 -68 q 890 -59 893 -62 q 853 -79 876 -79 q 810 -56 827 -79 q 794 -5 794 -33 q 861 64 794 64 q 890 47 879 64 q 893 75 893 59 q 888 114 893 93 l 913 114 l 913 -75 m 584 316 l 584 215 l 502 215 l 502 384 q 517 381 504 381 q 571 384 532 381 q 584 316 584 323 m 678 87 l 660 87 l 660 114 l 678 114 l 678 87 m 789 58 q 785 48 789 56 q 775 40 782 40 q 770 41 771 40 q 765 43 769 43 q 738 -5 742 43 q 738 -75 738 -4 l 720 -75 l 719 62 q 740 47 728 59 q 756 64 760 64 q 773 61 761 64 q 789 58 785 58 m 678 -75 l 660 -75 l 660 63 l 678 63 l 678 -75 m 423 383 q 355 198 411 325 q 281 236 323 208 q 350 404 305 291 q 423 383 375 400 m 627 -19 q 612 -57 627 -40 q 576 -75 597 -75 l 485 -75 l 485 115 l 565 115 q 602 101 585 115 q 620 67 620 87 q 594 26 620 43 q 627 -19 627 8 m 885 856 l 885 915 l 471 915 l 471 856 l 885 856 m 885 736 l 885 793 l 471 793 l 471 736 l 885 736 m 893 -5 q 855 47 893 47 q 816 -5 816 47 q 856 -59 816 -59 q 893 -5 893 -59 m 595 61 q 588 79 595 69 q 572 90 581 90 l 509 90 l 509 36 l 578 36 q 595 61 595 51 m 603 -19 q 595 0 603 -9 q 577 11 588 11 l 509 11 l 509 -51 l 581 -51 q 596 -39 589 -51 q 603 -19 603 -27 "},"R":{"x_min":249.59375,"x_max":1136.859375,"ha":1389,"o":"m 1089 935 l 733 935 l 733 871 l 1026 871 l 1026 810 l 364 810 l 364 871 l 655 871 l 655 935 l 301 935 l 301 997 l 652 997 l 652 1054 q 748 1050 737 1054 l 733 1032 l 733 998 l 1089 998 l 1089 935 m 1136 448 l 249 448 l 249 519 l 545 521 q 512 583 535 553 l 412 583 l 412 765 l 979 765 l 979 583 l 875 583 q 839 522 861 563 l 1136 522 l 1136 448 m 995 174 l 920 174 l 921 194 l 475 194 q 471 166 471 185 l 397 166 l 397 404 l 995 404 l 995 174 m 899 63 q 867 -38 882 12 q 814 -131 845 -98 l 789 -126 l 789 -108 q 828 -75 828 -107 q 781 63 828 -68 l 803 63 q 842 -42 816 26 l 881 63 l 899 63 m 758 -5 q 695 -79 758 -79 q 648 -58 667 -79 q 630 -8 630 -37 q 695 64 630 64 q 758 -5 758 64 m 602 -34 q 585 -66 602 -54 q 549 -79 569 -79 q 517 -66 535 -79 q 499 -40 499 -54 q 503 -20 499 -35 l 523 -20 l 522 -26 q 551 -55 520 -55 q 579 -24 579 -55 l 579 114 l 602 114 l 602 -34 m 915 647 l 915 701 l 476 701 l 476 647 l 915 647 m 788 582 l 595 582 q 627 519 605 561 l 756 519 q 788 582 778 556 m 919 258 l 919 340 l 472 340 l 472 258 l 919 258 m 737 -5 q 725 30 737 13 q 695 47 714 47 q 654 -5 654 47 q 695 -59 654 -59 q 737 -5 737 -59 "},"5":{"x_min":278,"x_max":1114.1875,"ha":1389,"o":"m 1114 250 l 278 250 l 278 333 l 521 333 q 575 618 578 606 l 378 618 l 378 701 l 582 701 q 611 892 611 850 l 322 892 l 322 978 l 1066 978 l 1066 892 l 697 892 q 669 701 684 823 l 943 701 q 948 582 950 651 q 945 463 945 462 l 945 338 l 1114 338 l 1114 250 m 940 -11 l 835 -15 q 834 -22 834 -18 q 879 -60 834 -60 q 913 -31 904 -60 l 936 -31 q 915 -63 936 -48 q 879 -79 895 -79 q 829 -58 848 -79 q 810 -8 810 -37 q 875 64 810 64 q 940 -11 936 64 m 650 88 l 632 88 l 632 114 l 650 114 l 650 88 m 797 64 l 748 -75 l 722 -75 l 675 64 l 697 64 q 736 -43 708 27 q 779 64 750 -7 l 797 64 m 650 -75 l 632 -75 l 632 64 l 650 64 l 650 -75 m 594 88 l 496 88 l 496 33 l 582 33 l 582 12 l 496 12 l 496 -75 l 472 -75 l 472 114 l 594 114 l 594 88 m 866 544 q 859 618 866 593 l 664 618 l 611 338 l 859 338 l 858 357 q 861 453 857 390 q 866 544 866 515 m 916 8 q 876 47 903 47 q 850 34 858 47 q 834 8 842 22 l 916 8 "},"o":{"x_min":269,"x_max":1134.34375,"ha":1389,"o":"m 995 882 q 934 813 974 859 l 805 930 q 835 968 810 941 q 866 995 859 995 q 931 947 877 995 q 995 882 985 898 m 1134 304 l 1081 206 q 857 351 970 243 q 709 566 745 459 q 560 326 696 447 q 306 186 434 216 q 269 280 296 206 q 530 430 424 319 q 643 702 643 550 l 289 702 l 289 790 l 643 790 l 643 1030 l 714 1032 q 748 1030 742 1033 l 733 1004 l 733 790 l 1103 790 l 1103 702 l 741 702 q 882 453 753 573 q 1134 304 998 347 m 920 -94 q 897 -119 920 -108 q 860 -131 875 -131 q 805 -87 821 -131 q 835 -104 821 -96 q 871 -112 849 -112 q 899 -81 885 -112 l 896 -60 q 857 -75 872 -75 q 816 -52 832 -75 q 801 -4 801 -30 q 867 64 801 64 q 897 47 889 64 q 900 64 900 50 l 920 64 l 920 -94 m 782 -5 q 719 -79 782 -79 q 672 -58 691 -79 q 654 -8 654 -37 q 719 64 654 64 q 782 -5 782 64 m 634 19 q 615 -44 634 -13 q 564 -75 596 -75 l 480 -75 l 480 115 l 556 115 q 615 84 593 115 q 634 19 634 59 m 899 -5 q 862 47 899 47 q 825 -4 825 47 q 862 -56 825 -56 q 899 -5 899 -56 m 761 -5 q 749 30 761 13 q 719 47 738 47 q 678 -5 678 47 q 719 -59 678 -59 q 761 -5 761 -59 m 610 19 q 598 65 610 40 q 569 90 585 90 l 504 90 l 504 -51 l 569 -51 q 599 -23 585 -51 q 610 19 610 0 "}}}
